<?xml version="1.0" encoding="utf-8"?>
<!-- Generator: Adobe Illustrator 21.0.0, SVG Export Plug-In . SVG Version: 6.00 Build 0)  -->
<svg version="1.1" id="Layer_1" xmlns="http://www.w3.org/2000/svg" xmlns:xlink="http://www.w3.org/1999/xlink" x="0px" y="0px"
	 viewBox="0 0 108.6 109.8" style="enable-background:new 0 0 108.6 109.8;" xml:space="preserve">
<style type="text/css">
	.st0{fill:#0072C6;}
	.st1{opacity:0;clip-path:url(#SVGID_2_);}
</style>
<g>
	<path class="st0" d="M73.1,18.5c-1.7,0-3.3,0.4-4.8,1.1v20.2c1.5,0.7,3.1,1.1,4.8,1.1c4.5,0,8.3-2.6,10.1-6.5
		c3.7,2.4,6.8,5.7,8.8,9.7c-3.4,1.9-5.8,5.6-5.8,9.8c0,4.5,2.7,8.4,6.5,10.1c-1.8,4.3-4.8,8-8.5,10.7c-1.9-3.5-5.6-5.8-9.8-5.8
		c-2.2,0-4.3,0.7-6.1,1.8v18.8c1.8,1.1,3.8,1.8,6.1,1.8c6.2,0,11.2-5,11.2-11.2c0-0.2,0-0.4,0-0.5c5.3-3.4,9.4-8.5,11.6-14.5l0.2,0
		c6.2,0,11.2-5,11.2-11.2c0-6.2-5-11.2-11.2-11.2c-0.3,0-0.7,0-1,0c-2.5-5.6-6.8-10.3-12.1-13.4C84.2,23.4,79.2,18.5,73.1,18.5"/>
	<path class="st0" d="M31.4,42.1L25.6,58h11.7L31.4,42.1 M24.3,72.6L24.3,72.6c-0.1-0.4-0.1-0.7,0-1.1
		C24.3,71.9,24.3,72.3,24.3,72.6 M26.9,32.1H36L53.3,75l0,0l-9.4,0l-3.8-9.8H26.3c0,0.3-0.1,0.5-0.1,0.8l0,0.1c0-0.3,0-0.6,0-0.8
		h-3.3L19.4,75h-9.2L26.9,32.1 M65.1,0L0,11.5v86.9l64.5,11.5L65.1,0"/>
	<g>
		<defs>
			<polyline id="SVGID_1_" points="10.2,32.1 53.3,32.1 53.3,75 10.2,75 10.2,32.1 			"/>
		</defs>
		<clipPath id="SVGID_2_">
			<use xlink:href="#SVGID_1_"  style="overflow:visible;"/>
		</clipPath>
		<path class="st1" d="M40.8,51.4l0.2-0.1l0,0L40.8,51.4 M25.6,58l5.8-15.9L37.3,58H25.6 M36,32.1h-9.2L10.2,75h9.2l3.5-9.8h3.3
			c0,0,0-0.1,0-0.1l0.1,0c0,0,0,0,0,0.1h13.8l3.8,9.8h9.4l0,0L36,32.1"/>
	</g>
</g>
</svg>
