<?xml version="1.0" encoding="utf-8"?>
<!-- Generator: Adobe Illustrator 21.0.0, SVG Export Plug-In . SVG Version: 6.00 Build 0)  -->
<svg version="1.1" id="Layer_1" xmlns="http://www.w3.org/2000/svg" xmlns:xlink="http://www.w3.org/1999/xlink" x="0px" y="0px"
	 viewBox="0 0 108.6 109.8" style="enable-background:new 0 0 108.6 109.8;" xml:space="preserve">
<style type="text/css">
	.st0{fill:#0072C6;}
	.st1{opacity:0;clip-path:url(#SVGID_2_);}
</style>
<g>
	<path class="st0" d="M73.1,18.5c-1.7,0-3.3,0.4-4.8,1.1v20.2c1.4,0.7,3.1,1.1,4.8,1.1c4.5,0,8.3-2.6,10.1-6.4
		c3.7,2.4,6.8,5.7,8.8,9.8c-3.5,1.9-5.8,5.6-5.8,9.8c0,4.5,2.7,8.4,6.5,10.1c-1.8,4.3-4.7,8-8.5,10.7c-1.9-3.5-5.6-5.8-9.8-5.8
		c-2.2,0-4.3,0.7-6.1,1.8v18.8c1.8,1.1,3.8,1.8,6.1,1.8c6.2,0,11.2-5,11.2-11.2c0-0.2,0-0.4,0-0.5c5.3-3.4,9.4-8.5,11.6-14.5l0.2,0
		c6.2,0,11.2-5,11.2-11.2c0-6.2-5-11.2-11.2-11.2c-0.3,0-0.7,0-1,0c-2.5-5.6-6.8-10.3-12.1-13.4C84.2,23.4,79.2,18.5,73.1,18.5"/>
	<path class="st0" d="M31.4,56.3h-7v11.5h8c3.1,0,5.1-0.1,5.9-0.3c1.3-0.2,2.3-0.8,3.2-1.7c0.8-0.9,1.2-2.1,1.2-3.7
		c0-1.3-0.3-2.4-0.9-3.3c-0.6-0.9-1.5-1.5-2.7-2C37.9,56.5,35.4,56.3,31.4,56.3 M29.4,39.2h-5v0v9.9h5.7c3.4,0,5.5,0,6.3-0.1
		c1.5-0.2,2.7-0.7,3.5-1.5c0.9-0.9,1.3-2,1.3-3.4c0-1.3-0.4-2.4-1.1-3.2c-0.7-0.8-1.8-1.3-3.3-1.5C35.9,39.3,33.5,39.2,29.4,39.2
		 M15.7,75V32.1h17.2c3.4,0,5.9,0.1,7.6,0.4c1.7,0.3,3.2,0.9,4.5,1.8c1.3,0.9,2.4,2.1,3.3,3.6c0.9,1.5,1.3,3.2,1.3,5
		c0,2-0.5,3.9-1.6,5.5c-1.1,1.7-2.5,2.9-4.4,3.8c2.6,0.8,4.6,2.1,6,3.9c1.4,1.8,2.1,4,2.1,6.5c0,2-0.5,3.8-1.4,5.7
		c-0.9,1.8-2.2,3.3-3.7,4.4c-1.6,1.1-3.5,1.8-5.8,2c-1.4,0.2-4.9,0.2-10.4,0.3H15.7 M65.1,0L0,11.5v86.9l64.5,11.5L65.1,0"/>
	<g>
		<defs>
			<polyline id="SVGID_1_" points="15.7,32.1 51.7,32.1 51.7,75 15.7,75 15.7,32.1 			"/>
		</defs>
		<clipPath id="SVGID_2_">
			<use xlink:href="#SVGID_1_"  style="overflow:visible;"/>
		</clipPath>
		<path class="st1" d="M24.4,67.8V56.3h7c3.9,0,6.5,0.2,7.7,0.6c1.2,0.4,2.1,1.1,2.7,2c0.6,0.9,0.9,2,0.9,3.3c0,1.5-0.4,2.7-1.2,3.7
			c-0.8,0.9-1.9,1.5-3.2,1.7c-0.8,0.2-2.8,0.3-5.9,0.3H24.4 M24.4,49.2v-9.9v0h5c4.1,0,6.5,0,7.4,0.2c1.5,0.2,2.5,0.7,3.3,1.5
			c0.7,0.8,1.1,1.9,1.1,3.2c0,1.4-0.4,2.5-1.3,3.4c-0.8,0.9-2,1.4-3.5,1.5c-0.8,0.1-2.9,0.1-6.3,0.1H24.4 M32.9,32.1H15.7V75h14.7
			c5.5,0,9-0.1,10.4-0.3c2.3-0.3,4.2-0.9,5.8-2c1.6-1.1,2.8-2.6,3.7-4.4c0.9-1.9,1.4-3.7,1.4-5.7c0-2.5-0.7-4.6-2.1-6.5
			c-1.4-1.8-3.4-3.1-6-3.9c1.9-0.8,3.3-2.1,4.4-3.8c1.1-1.7,1.6-3.5,1.6-5.5c0-1.9-0.4-3.5-1.3-5c-0.9-1.5-2-2.7-3.3-3.6
			c-1.3-0.9-2.8-1.5-4.5-1.8C38.8,32.2,36.3,32.1,32.9,32.1"/>
	</g>
</g>
</svg>
