<?xml version="1.0" encoding="utf-8"?>
<!-- Generator: Adobe Illustrator 23.1.0, SVG Export Plug-In . SVG Version: 6.00 Build 0)  -->
<svg version="1.1" id="Layer_1" xmlns="http://www.w3.org/2000/svg" xmlns:xlink="http://www.w3.org/1999/xlink" x="0px" y="0px"
	 viewBox="0 0 108.6 109.8" style="enable-background:new 0 0 108.6 109.8;" xml:space="preserve">
<style type="text/css">
	.st0{fill:#0072C6;}
	.st1{fill:#FFFFFF;}
</style>
<g>
	<path class="st0" d="M73.1,18.5c-1.7,0-3.3,0.4-4.8,1.1c0,0,0,0,0,0.1c0,1.1,0,19,0,20.1v0.1c1.4,0.7,3.1,1.1,4.8,1.1
		c4.5,0,8.2-2.6,10.1-6.3c0,0,0.1-0.1,0.1,0c3.6,2.4,6.7,5.6,8.7,9.7v0.1c-3.5,1.9-5.7,5.6-5.7,9.8c0,4.5,2.7,8.3,6.4,10.1
		c0,0,0.1,0.1,0,0.1c-1.8,4.2-4.7,7.9-8.4,10.6h-0.1c-1.9-3.5-5.6-5.7-9.8-5.7c-2.2,0-4.3,0.7-6.1,1.8c0,0,0,0,0,0.1
		c0,1,0,17.7,0,18.7v0.1c1.9,1.2,4,1.9,6.5,1.8C80.9,91.3,85.6,86,85.6,80v-0.1v-0.1c5.3-3.4,9.3-8.5,11.5-14.4c0,0,0-0.1,0.1-0.1
		l0,0c5.3,0,10-3.6,11.1-8.7c1.5-7.3-4-13.7-11.1-13.7c-0.4-0.3-0.8-0.6-1.3-0.8c-2.5-5.2-6.7-9.6-11.7-12.6c0,0,0,0,0-0.1
		C84.2,23.4,79.2,18.5,73.1,18.5"/>
	<path class="st0" d="M65.1,0l-65,11.5c0,0-0.1,0-0.1,0.1v86.8c0,0,0,0.1,0.1,0.1L64.4,110c0.1,0,0.1,0,0.1-0.1L65.1,0"/>
	<path class="st1" d="M15,74.9V31.9h18.3c4.6,0,7.9,0.4,10,1.2c2.1,0.8,3.7,2.1,5,4.1c1.3,2,1.9,4.2,1.9,6.8c0,3.2-0.9,5.9-2.8,8
		c-1.9,2.1-4.7,3.4-8.5,4c1.9,1.1,3.4,2.3,4.6,3.6c1.2,1.3,2.9,3.6,4.9,7l5.2,8.4H43.2l-6.3-9.3c-2.2-3.3-3.8-5.4-4.6-6.3
		c-0.8-0.9-1.7-1.5-2.6-1.8c-0.9-0.3-2.4-0.5-4.4-0.5h-1.8v17.9H15z M23.6,50.1h6.4c4.2,0,6.8-0.2,7.8-0.5c1-0.4,1.8-1,2.4-1.8
		c0.6-0.9,0.9-1.9,0.9-3.2c0-1.4-0.4-2.6-1.2-3.5c-0.8-0.9-1.9-1.5-3.3-1.7c-0.7-0.1-2.8-0.1-6.3-0.1h-6.8V50.1z"/>
</g>
</svg>
