<svg xmlns="http://www.w3.org/2000/svg" viewBox="0 0 84.4 42.6"><defs><style>.cls-1{fill:#fff;}</style></defs><title>Asset 1</title><g id="Layer_2" data-name="Layer 2"><g id="Layer_1-2" data-name="Layer 1"><polygon class="cls-1" points="84.4 35.6 80.9 42.6 44.7 42.6 84.4 35.6"/><polygon class="cls-1" points="46.1 41.4 80.2 35.4 82.3 28.2 46.1 41.4"/><polygon class="cls-1" points="47.2 39.8 78.2 28.5 79 21.4 47.2 39.8"/><polygon class="cls-1" points="47.8 37.7 75.1 22 74.6 15.2 47.8 37.7"/><polygon class="cls-1" points="48 35.3 70.8 16.2 69.3 10 48 35.3"/><polygon class="cls-1" points="47.5 32.9 65.6 11.3 63.2 5.7 47.5 32.9"/><polygon class="cls-1" points="46.4 30.3 59.6 7.4 56.4 2.6 46.4 30.3"/><polygon class="cls-1" points="44.5 28 53 4.5 49.3 0.7 44.5 28"/><polygon class="cls-1" points="42.1 25.9 46.1 3 42.1 0 42.1 25.9"/><polygon class="cls-1" points="39 24.3 39 2.6 34.8 0.6 39 24.3"/><polygon class="cls-1" points="35.4 23.3 31.9 3.6 27.8 2.3 35.4 23.3"/><polygon class="cls-1" points="31.5 23 25.2 5.7 21.2 5.3 31.5 23"/><polygon class="cls-1" points="27.3 23.5 18.9 9 15.3 9.2 27.3 23.5"/><polygon class="cls-1" points="23.1 25 13.4 13.4 10.2 14.1 23.1 25"/><polygon class="cls-1" points="19 27.3 8.7 18.6 6 19.8 19 27.3"/><polygon class="cls-1" points="15.3 30.6 5 24.6 2.9 26 15.3 30.6"/><polygon class="cls-1" points="12.1 34.7 2.5 31.2 0.9 32.7 12.1 34.7"/><polygon class="cls-1" points="9.6 39.5 1.1 38 0 39.5 9.6 39.5"/></g></g></svg>