<?xml version="1.0" encoding="UTF-8" ?>
<!DOCTYPE svg PUBLIC "-//W3C//DTD SVG 1.1//EN" "http://www.w3.org/Graphics/SVG/1.1/DTD/svg11.dtd">
<svg width="470pt" height="198pt" viewBox="0 0 470 198" version="1.1" xmlns="http://www.w3.org/2000/svg">
<g id="#0d0c13ff">
<path fill="#0d0c13" opacity="1.00" d=" M 0.00 0.00 L 470.00 0.00 L 470.00 198.00 L 0.00 198.00 L 0.00 0.00 M 346.88 12.44 C 324.09 15.65 301.49 20.36 279.48 27.15 C 247.09 37.12 215.44 49.61 185.15 64.82 C 184.06 60.07 181.66 55.82 178.74 51.96 C 172.81 51.69 166.85 51.38 160.92 51.73 C 159.32 51.95 157.36 51.91 156.33 53.39 C 153.18 57.47 151.35 62.37 148.83 66.84 C 145.25 73.34 142.09 80.04 138.57 86.56 C 136.91 89.80 134.10 92.23 130.99 94.01 C 117.03 102.17 103.40 110.88 90.08 120.04 C 87.35 121.90 84.85 124.08 82.58 126.48 C 89.86 125.04 96.11 120.89 102.71 117.73 C 110.99 113.81 118.95 109.18 127.55 105.96 C 125.99 110.95 123.50 115.54 120.99 120.08 C 112.84 135.58 104.83 151.16 96.62 166.63 C 94.41 170.76 92.34 174.97 90.47 179.26 C 92.58 179.83 94.71 180.38 96.84 180.89 C 97.05 181.99 97.26 183.08 97.47 184.18 C 102.97 184.44 108.51 184.88 114.00 184.29 C 117.22 184.23 118.40 180.88 119.70 178.52 C 122.51 172.46 125.20 166.35 128.29 160.43 C 135.10 160.37 141.92 160.35 148.74 160.44 C 148.30 166.70 147.01 172.93 147.42 179.22 C 150.94 181.53 154.48 184.59 158.94 184.53 C 163.22 184.62 167.60 184.87 171.81 183.91 C 173.82 183.69 172.74 181.43 172.88 180.16 C 174.50 179.84 176.14 179.66 177.80 179.61 C 177.71 181.18 177.64 182.75 177.57 184.33 C 183.93 184.23 190.45 185.27 196.70 183.85 C 199.07 181.97 200.24 179.04 201.58 176.41 C 204.00 171.01 206.52 165.64 209.34 160.43 C 216.38 160.36 223.42 160.52 230.46 160.24 C 230.38 162.82 229.87 165.36 229.65 167.93 C 228.55 171.29 226.75 175.00 228.00 178.54 C 230.67 180.92 233.67 183.03 237.08 184.20 C 242.28 184.82 247.63 184.81 252.83 184.07 C 254.37 182.96 254.09 180.68 254.43 179.01 C 254.82 170.58 256.74 162.33 257.44 153.94 C 258.05 141.27 259.49 128.66 260.75 116.03 C 261.91 108.23 261.27 100.31 262.41 92.50 C 263.61 84.00 264.34 75.44 265.35 66.92 C 265.50 63.89 265.98 60.73 265.16 57.76 C 263.72 55.64 261.66 54.06 259.78 52.35 C 257.95 52.12 256.13 51.80 254.29 51.67 C 256.45 50.72 258.52 49.60 260.71 48.70 C 282.24 40.60 304.60 34.82 327.19 30.54 C 338.44 29.03 349.59 26.38 360.99 26.36 C 372.01 26.20 383.03 26.16 394.05 26.38 C 401.94 26.45 409.44 29.12 417.11 30.60 C 425.97 32.39 434.71 35.46 442.03 40.87 C 448.83 45.73 454.38 53.33 454.62 61.95 C 455.09 71.87 450.38 81.06 445.55 89.41 C 441.84 95.69 436.99 101.27 433.93 107.94 C 440.85 103.74 446.45 97.79 451.69 91.69 C 455.83 86.97 459.71 81.91 462.25 76.13 C 465.88 68.03 469.64 59.25 468.08 50.18 C 466.50 39.98 459.88 31.08 451.19 25.71 C 436.11 16.12 418.05 12.58 400.49 11.03 C 382.64 9.06 364.67 10.68 346.88 12.44 M 292.03 61.10 C 289.32 69.42 286.98 77.86 284.25 86.18 C 282.83 90.56 281.43 95.25 282.60 99.86 C 285.74 105.36 290.78 109.39 294.67 114.32 C 301.53 122.63 309.31 130.16 315.74 138.84 C 313.31 145.98 311.37 153.28 309.12 160.48 C 308.57 161.75 307.77 163.61 306.09 163.46 C 300.29 163.47 294.45 163.73 288.66 163.25 C 290.59 156.54 293.27 150.01 294.54 143.12 C 292.71 142.36 290.80 141.77 288.92 141.16 C 289.26 140.00 289.55 138.83 289.86 137.66 C 282.81 137.54 275.76 137.60 268.71 137.62 C 268.55 138.21 268.23 139.39 268.07 139.97 C 264.69 145.65 263.63 152.25 261.55 158.44 C 260.17 163.28 258.17 167.99 257.62 173.03 C 257.14 175.62 259.49 177.34 261.17 178.88 C 264.51 181.71 268.26 184.79 272.93 184.49 C 286.96 184.50 300.98 184.37 315.01 184.53 C 319.29 184.56 323.97 184.36 327.45 181.52 C 332.12 177.96 333.12 171.80 334.82 166.54 C 337.12 157.95 340.40 149.63 342.38 140.97 C 343.91 135.03 339.69 130.03 336.11 125.87 C 328.27 117.04 320.43 108.22 312.53 99.43 C 310.89 97.48 308.89 95.14 309.75 92.39 C 311.36 85.62 313.60 78.99 316.26 72.56 C 322.31 72.57 328.37 72.56 334.43 72.65 C 334.32 74.78 334.21 76.91 334.08 79.04 C 332.53 83.36 331.26 87.78 330.09 92.23 C 331.96 92.27 333.83 92.31 335.71 92.32 C 335.83 93.94 335.97 95.55 336.11 97.17 C 342.33 97.39 348.64 98.11 354.82 97.04 C 356.62 95.03 357.32 92.34 358.17 89.83 C 360.24 82.89 363.16 76.23 364.96 69.21 C 365.63 66.37 366.09 63.36 365.42 60.48 C 364.71 58.87 362.95 58.05 361.71 56.89 C 359.72 55.09 357.97 52.29 354.95 52.46 C 337.94 52.29 320.92 52.41 303.90 52.40 C 298.52 52.15 293.64 56.09 292.03 61.10 M 370.77 62.66 C 368.12 71.61 365.46 80.55 362.58 89.43 C 361.61 92.53 361.22 95.82 361.68 99.05 C 362.42 101.45 364.31 103.23 365.92 105.08 C 370.38 109.97 374.40 115.26 379.02 120.01 C 382.61 126.23 388.19 130.86 392.52 136.49 C 394.00 138.07 393.82 140.30 393.27 142.22 C 391.38 149.07 389.26 155.89 386.14 162.30 C 380.46 162.60 374.71 162.71 369.13 161.45 C 369.88 155.78 372.35 150.53 373.39 144.95 C 372.48 141.97 370.40 139.53 368.95 136.81 C 361.96 136.71 354.89 135.97 347.96 137.02 C 345.82 140.59 345.13 144.78 343.84 148.69 C 342.01 155.56 338.81 162.12 338.35 169.31 C 337.58 171.52 337.64 173.88 337.59 176.19 C 340.38 178.49 342.95 181.09 346.00 183.05 C 348.36 184.58 351.28 184.45 353.98 184.53 C 367.65 184.42 381.33 184.42 395.01 184.53 C 399.01 184.53 403.38 184.35 406.67 181.78 C 410.47 179.04 411.94 174.37 413.29 170.11 C 415.41 162.65 417.59 155.21 420.02 147.84 C 421.05 144.34 422.35 140.78 422.17 137.07 C 421.35 132.59 418.07 129.13 415.29 125.71 C 407.92 117.42 400.60 109.08 393.11 100.89 C 391.37 98.68 388.72 96.27 389.74 93.15 C 390.87 88.13 392.51 83.23 394.13 78.35 C 394.98 76.55 395.49 73.67 398.00 73.69 C 403.22 73.05 408.49 73.51 413.72 73.73 C 412.87 79.48 410.00 84.81 409.57 90.61 C 411.13 93.14 413.73 94.84 415.35 97.36 C 422.10 97.75 428.87 97.54 435.63 97.53 C 438.64 88.19 441.38 78.77 444.24 69.39 C 444.88 66.83 445.81 64.17 445.31 61.51 C 444.18 58.79 441.82 56.87 439.88 54.74 C 437.42 53.54 434.90 52.15 432.06 52.37 C 415.70 52.41 399.34 52.35 382.98 52.41 C 377.06 52.25 372.43 57.37 370.77 62.66 M 49.55 57.51 C 46.53 61.79 45.67 67.08 44.17 72.00 C 34.38 103.80 24.82 135.67 14.95 167.43 C 14.10 171.29 12.94 176.97 17.73 178.62 C 19.18 180.40 20.50 182.41 22.54 183.57 C 25.21 184.66 28.17 184.45 30.99 184.53 C 45.34 184.39 59.68 184.45 74.03 184.52 C 77.69 184.54 81.59 183.99 84.47 181.53 C 88.05 178.88 89.51 174.48 90.78 170.40 C 93.79 160.59 97.15 150.89 99.77 140.96 C 98.47 140.42 97.17 139.87 95.85 139.35 C 94.71 138.15 94.54 135.78 92.55 135.62 C 86.81 135.15 81.00 135.14 75.27 135.62 C 72.58 135.86 71.95 139.03 71.11 141.09 C 69.04 148.10 66.99 155.12 64.78 162.09 C 57.90 162.61 50.91 162.92 44.16 161.24 C 53.76 132.27 61.83 102.83 70.99 73.72 C 78.09 73.36 85.21 73.35 92.31 73.76 C 90.88 80.46 87.87 86.76 87.05 93.60 C 88.54 93.63 90.04 93.66 91.53 93.66 C 92.27 95.21 91.80 98.12 94.16 98.20 C 98.44 98.76 102.78 98.55 107.08 98.39 C 109.21 98.22 111.85 98.11 113.06 96.02 C 115.93 91.35 116.75 85.80 118.46 80.66 C 120.35 73.52 123.98 66.19 121.74 58.68 C 120.66 58.36 119.58 58.04 118.50 57.72 C 117.13 55.94 115.84 53.99 113.89 52.77 C 111.98 52.31 109.99 52.39 108.03 52.36 C 92.00 52.43 75.96 52.36 59.93 52.39 C 55.85 52.13 51.91 54.23 49.55 57.51 Z" />
<path fill="#0d0c13" opacity="1.00" d=" M 221.57 62.72 C 225.39 61.13 229.48 60.19 233.62 60.20 C 233.31 60.86 232.67 62.17 232.35 62.83 C 228.88 68.59 225.47 74.40 222.48 80.44 C 211.67 101.28 200.68 122.02 189.89 142.88 C 185.40 151.17 181.42 159.75 176.42 167.77 C 175.34 151.09 179.25 134.65 179.58 118.01 C 179.72 111.57 180.50 105.18 181.23 98.78 C 181.85 93.25 181.71 87.65 182.60 82.14 C 182.89 78.77 186.56 77.62 189.10 76.28 C 199.88 71.66 210.72 67.17 221.57 62.72 Z" />
<path fill="#0d0c13" opacity="1.00" d=" M 145.71 123.53 C 149.01 117.16 151.18 110.03 156.21 104.71 C 156.95 111.60 154.22 118.16 153.71 124.95 C 153.43 129.20 153.38 133.47 153.29 137.73 C 148.62 139.24 143.65 138.46 138.84 138.57 C 140.86 133.43 143.20 128.44 145.71 123.53 Z" />
<path fill="#0d0c13" opacity="1.00" d=" M 220.80 137.46 C 225.60 127.50 230.02 117.31 235.55 107.73 C 235.48 115.65 233.84 123.44 233.51 131.34 C 233.16 133.28 233.47 135.68 232.06 137.20 C 228.63 139.25 224.48 137.89 220.80 137.46 Z" />
</g>
<g id="#800526ff">
<path fill="#800526" opacity="1.00" d=" M 346.88 12.44 C 364.67 10.68 382.64 9.06 400.49 11.03 C 418.05 12.58 436.11 16.12 451.19 25.71 C 459.88 31.08 466.50 39.98 468.08 50.18 C 469.64 59.25 465.88 68.03 462.25 76.13 C 459.71 81.91 455.83 86.97 451.69 91.69 C 446.45 97.79 440.85 103.74 433.93 107.94 C 436.99 101.27 441.84 95.69 445.55 89.41 C 450.38 81.06 455.09 71.87 454.62 61.95 C 454.38 53.33 448.83 45.73 442.03 40.87 C 434.71 35.46 425.97 32.39 417.11 30.60 C 409.44 29.12 401.94 26.45 394.05 26.38 C 383.03 26.16 372.01 26.20 360.99 26.36 C 349.59 26.38 338.44 29.03 327.19 30.54 C 304.60 34.82 282.24 40.60 260.71 48.70 C 258.52 49.60 256.45 50.72 254.29 51.67 C 249.00 52.02 243.47 50.98 238.34 52.62 C 236.05 54.60 234.99 57.57 233.62 60.20 C 229.48 60.19 225.39 61.13 221.57 62.72 C 210.72 67.17 199.88 71.66 189.10 76.28 C 186.56 77.62 182.89 78.77 182.60 82.14 C 181.71 87.65 181.85 93.25 181.23 98.78 C 180.50 105.18 179.72 111.57 179.58 118.01 C 179.25 134.65 175.34 151.09 176.42 167.77 C 181.42 159.75 185.40 151.17 189.89 142.88 C 200.68 122.02 211.67 101.28 222.48 80.44 C 225.47 74.40 228.88 68.59 232.35 62.83 C 227.94 73.01 222.48 82.69 217.37 92.52 C 204.80 116.63 192.25 140.75 179.61 164.82 C 177.16 169.81 172.57 174.22 172.88 180.16 C 172.74 181.43 173.82 183.69 171.81 183.91 C 167.60 184.87 163.22 184.62 158.94 184.53 C 154.48 184.59 150.94 181.53 147.42 179.22 C 147.01 172.93 148.30 166.70 148.74 160.44 C 141.92 160.35 135.10 160.37 128.29 160.43 C 125.20 166.35 122.51 172.46 119.70 178.52 C 118.40 180.88 117.22 184.23 114.00 184.29 C 108.51 184.88 102.97 184.44 97.47 184.18 C 97.26 183.08 97.05 181.99 96.84 180.89 C 94.71 180.38 92.58 179.83 90.47 179.26 C 92.34 174.97 94.41 170.76 96.62 166.63 C 104.83 151.16 112.84 135.58 120.99 120.08 C 123.50 115.54 125.99 110.95 127.55 105.96 C 118.95 109.18 110.99 113.81 102.71 117.73 C 96.11 120.89 89.86 125.04 82.58 126.48 C 84.85 124.08 87.35 121.90 90.08 120.04 C 103.40 110.88 117.03 102.17 130.99 94.01 C 134.10 92.23 136.91 89.80 138.57 86.56 C 142.09 80.04 145.25 73.34 148.83 66.84 C 151.35 62.37 153.18 57.47 156.33 53.39 C 157.36 51.91 159.32 51.95 160.92 51.73 C 166.85 51.38 172.81 51.69 178.74 51.96 C 181.66 55.82 184.06 60.07 185.15 64.82 C 215.44 49.61 247.09 37.12 279.48 27.15 C 301.49 20.36 324.09 15.65 346.88 12.44 M 157.78 52.47 C 149.13 67.49 141.87 83.28 133.10 98.24 C 120.09 125.38 105.12 151.55 91.90 178.58 C 98.24 180.23 104.84 179.47 111.32 179.63 C 115.14 173.04 118.13 166.03 121.50 159.21 C 122.56 157.40 123.66 154.79 126.12 154.78 C 134.17 154.56 142.22 154.80 150.27 154.74 C 150.39 158.89 150.14 163.04 149.36 167.12 C 148.87 170.93 147.20 175.21 149.18 178.82 C 155.11 180.49 161.46 179.28 167.57 179.60 C 169.53 169.84 169.70 159.88 170.90 150.03 C 172.05 143.54 171.28 136.91 172.30 130.41 C 173.44 122.31 174.18 114.17 174.72 106.01 C 176.02 98.34 175.27 90.51 176.64 82.84 C 178.06 72.81 178.95 62.65 178.63 52.50 C 171.68 52.41 164.73 52.46 157.78 52.47 Z" />
<path fill="#800526" opacity="1.00" d=" M 259.78 52.35 C 261.66 54.06 263.72 55.64 265.16 57.76 C 265.98 60.73 265.50 63.89 265.35 66.92 C 264.34 75.44 263.61 84.00 262.41 92.50 C 261.27 100.31 261.91 108.23 260.75 116.03 C 259.49 128.66 258.05 141.27 257.44 153.94 C 256.74 162.33 254.82 170.58 254.43 179.01 C 254.09 180.68 254.37 182.96 252.83 184.07 C 247.63 184.81 242.28 184.82 237.08 184.20 C 233.67 183.03 230.67 180.92 228.00 178.54 C 226.75 175.00 228.55 171.29 229.65 167.93 C 229.39 171.75 229.27 175.57 229.14 179.39 C 235.76 179.68 242.39 179.64 249.01 179.63 C 250.36 164.56 251.61 149.47 253.36 134.44 C 253.74 128.81 253.64 123.14 254.38 117.53 C 256.14 103.53 257.18 89.45 258.20 75.38 C 259.33 67.76 260.02 60.07 259.78 52.35 Z" />
<path fill="#800526" opacity="1.00" d=" M 439.88 54.74 C 441.82 56.87 444.18 58.79 445.31 61.51 C 445.81 64.17 444.88 66.83 444.24 69.39 C 441.38 78.77 438.64 88.19 435.63 97.53 C 428.87 97.54 422.10 97.75 415.35 97.36 C 413.73 94.84 411.13 93.14 409.57 90.61 C 410.00 84.81 412.87 79.48 413.72 73.73 C 408.49 73.51 403.22 73.05 398.00 73.69 C 395.49 73.67 394.98 76.55 394.13 78.35 C 392.51 83.23 390.87 88.13 389.74 93.15 C 388.72 96.27 391.37 98.68 393.11 100.89 C 400.60 109.08 407.92 117.42 415.29 125.71 C 418.07 129.13 421.35 132.59 422.17 137.07 C 422.35 140.78 421.05 144.34 420.02 147.84 C 417.59 155.21 415.41 162.65 413.29 170.11 C 411.94 174.37 410.47 179.04 406.67 181.78 C 403.38 184.35 399.01 184.53 395.01 184.53 C 381.33 184.42 367.65 184.42 353.98 184.53 C 351.28 184.45 348.36 184.58 346.00 183.05 C 342.95 181.09 340.38 178.49 337.59 176.19 C 341.47 178.02 345.52 179.91 349.92 179.66 C 363.63 179.60 377.35 179.64 391.06 179.65 C 396.83 179.68 403.41 177.34 405.85 171.67 C 409.08 164.05 410.75 155.87 413.42 148.04 C 414.80 143.00 417.04 138.13 417.53 132.89 C 416.99 128.57 413.40 125.50 410.78 122.28 C 403.42 114.28 396.43 105.95 389.04 97.97 C 386.74 95.20 383.47 92.17 384.44 88.19 C 385.86 81.20 388.50 74.51 390.65 67.72 C 399.06 67.72 407.47 67.72 415.88 67.72 C 415.45 73.69 413.63 79.40 411.73 85.04 C 411.38 86.91 410.12 88.97 411.21 90.80 C 417.34 92.83 424.08 91.35 430.46 91.68 C 432.18 86.72 433.51 81.63 435.10 76.62 C 437.20 69.45 440.23 62.36 439.88 54.74 Z" />
<path fill="#800526" opacity="1.00" d=" M 361.71 56.89 C 362.95 58.05 364.71 58.87 365.42 60.48 C 366.09 63.36 365.63 66.37 364.96 69.21 C 363.16 76.23 360.24 82.89 358.17 89.83 C 357.32 92.34 356.62 95.03 354.82 97.04 C 348.64 98.11 342.33 97.39 336.11 97.17 C 335.97 95.55 335.83 93.94 335.71 92.32 C 340.85 92.33 345.99 92.33 351.13 92.25 C 354.92 80.55 358.55 68.78 361.71 56.89 Z" />
<path fill="#800526" opacity="1.00" d=" M 118.50 57.72 C 119.58 58.04 120.66 58.36 121.74 58.68 C 123.98 66.19 120.35 73.52 118.46 80.66 C 116.75 85.80 115.93 91.35 113.06 96.02 C 111.85 98.11 109.21 98.22 107.08 98.39 C 102.78 98.55 98.44 98.76 94.16 98.20 C 91.80 98.12 92.27 95.21 91.53 93.66 C 96.94 93.67 102.34 93.65 107.75 93.62 C 111.48 81.70 115.28 69.79 118.50 57.72 Z" />
<path fill="#800526" opacity="1.00" d=" M 310.93 67.77 C 319.53 67.69 328.13 67.70 336.73 67.76 C 336.18 71.59 335.40 75.39 334.08 79.04 C 334.21 76.91 334.32 74.78 334.43 72.65 C 328.37 72.56 322.31 72.57 316.26 72.56 C 313.60 78.99 311.36 85.62 309.75 92.39 C 308.89 95.14 310.89 97.48 312.53 99.43 C 320.43 108.22 328.27 117.04 336.11 125.87 C 339.69 130.03 343.91 135.03 342.38 140.97 C 340.40 149.63 337.12 157.95 334.82 166.54 C 333.12 171.80 332.12 177.96 327.45 181.52 C 323.97 184.36 319.29 184.56 315.01 184.53 C 300.98 184.37 286.96 184.50 272.93 184.49 C 268.26 184.79 264.51 181.71 261.17 178.88 C 259.49 177.34 257.14 175.62 257.62 173.03 C 258.17 167.99 260.17 163.28 261.55 158.44 C 263.63 152.25 264.69 145.65 268.07 139.97 C 265.60 149.13 262.77 158.18 259.90 167.21 C 259.21 169.67 258.21 172.20 258.62 174.79 C 260.78 178.23 264.98 179.78 268.92 179.65 C 282.63 179.65 296.35 179.58 310.06 179.67 C 315.04 179.77 320.47 178.77 324.13 175.14 C 327.48 171.67 328.37 166.74 329.76 162.30 C 331.90 154.55 334.44 146.93 336.76 139.23 C 338.06 135.11 338.56 130.10 335.30 126.73 C 326.31 116.40 317.00 106.34 308.05 95.97 C 306.51 93.81 303.86 91.51 304.84 88.58 C 306.49 81.53 309.26 74.81 310.93 67.77 Z" />
<path fill="#800526" opacity="1.00" d=" M 68.05 68.68 C 76.31 67.95 84.64 68.58 92.93 68.47 C 92.74 70.24 92.57 72.01 92.31 73.76 C 85.21 73.35 78.09 73.36 70.99 73.72 C 61.83 102.83 53.76 132.27 44.16 161.24 C 50.91 162.92 57.90 162.61 64.78 162.09 C 66.99 155.12 69.04 148.10 71.11 141.09 C 71.95 139.03 72.58 135.86 75.27 135.62 C 81.00 135.14 86.81 135.15 92.55 135.62 C 94.54 135.78 94.71 138.15 95.85 139.35 C 97.17 139.87 98.47 140.42 99.77 140.96 C 97.15 150.89 93.79 160.59 90.78 170.40 C 89.51 174.48 88.05 178.88 84.47 181.53 C 81.59 183.99 77.69 184.54 74.03 184.52 C 59.68 184.45 45.34 184.39 30.99 184.53 C 28.17 184.45 25.21 184.66 22.54 183.57 C 20.50 182.41 19.18 180.40 17.73 178.62 C 22.04 179.87 26.56 179.67 31.00 179.66 C 43.69 179.55 56.38 179.69 69.07 179.63 C 74.86 179.60 81.37 177.09 83.62 171.33 C 86.78 163.40 88.60 155.01 91.39 146.94 C 92.09 143.67 93.98 140.32 93.25 136.96 C 87.95 135.84 82.33 136.48 76.91 136.44 C 73.96 136.06 72.86 139.31 72.11 141.55 C 69.97 148.57 67.97 155.64 65.73 162.63 C 56.56 162.49 47.38 162.85 38.22 162.40 C 46.49 133.34 55.89 104.61 64.29 75.59 C 65.16 73.15 65.80 70.26 68.05 68.68 Z" />
<path fill="#800526" opacity="1.00" d=" M 147.64 105.83 C 150.83 99.66 153.26 93.05 157.35 87.39 C 158.24 93.20 156.96 98.97 156.21 104.71 C 151.18 110.03 149.01 117.16 145.71 123.53 C 143.20 128.44 140.86 133.43 138.84 138.57 C 136.59 138.58 134.34 138.54 132.10 138.48 C 136.84 127.39 142.50 116.73 147.64 105.83 Z" />
<path fill="#800526" opacity="1.00" d=" M 227.91 107.12 C 231.34 100.64 233.71 93.52 238.33 87.72 C 239.14 96.22 237.34 104.64 236.48 113.06 C 235.94 120.87 234.89 128.63 233.90 136.38 C 233.83 138.36 231.72 139.22 230.04 139.38 C 224.36 139.95 218.73 138.85 213.11 138.24 C 217.51 127.63 223.05 117.53 227.91 107.12 M 220.80 137.46 C 224.48 137.89 228.63 139.25 232.06 137.20 C 233.47 135.68 233.16 133.28 233.51 131.34 C 233.84 123.44 235.48 115.65 235.55 107.73 C 230.02 117.31 225.60 127.50 220.80 137.46 Z" />
<path fill="#800526" opacity="1.00" d=" M 379.02 120.01 C 383.75 124.63 388.16 129.56 392.46 134.58 C 393.73 136.19 395.46 138.04 394.78 140.28 C 393.05 148.14 389.98 155.66 388.03 163.47 C 379.34 163.58 370.54 164.30 361.98 162.44 C 364.07 154.36 366.85 146.48 368.78 138.35 C 361.94 138.20 355.09 138.24 348.25 138.29 C 344.91 148.62 341.93 159.06 338.35 169.31 C 338.81 162.12 342.01 155.56 343.84 148.69 C 345.13 144.78 345.82 140.59 347.96 137.02 C 354.89 135.97 361.96 136.71 368.95 136.81 C 370.40 139.53 372.48 141.97 373.39 144.95 C 372.35 150.53 369.88 155.78 369.13 161.45 C 374.71 162.71 380.46 162.60 386.14 162.30 C 389.26 155.89 391.38 149.07 393.27 142.22 C 393.82 140.30 394.00 138.07 392.52 136.49 C 388.19 130.86 382.61 126.23 379.02 120.01 Z" />
<path fill="#800526" opacity="1.00" d=" M 283.03 162.34 C 284.24 155.08 286.98 148.22 288.92 141.16 C 290.80 141.77 292.71 142.36 294.54 143.12 C 293.27 150.01 290.59 156.54 288.66 163.25 C 286.77 162.98 284.90 162.65 283.03 162.34 Z" />
<path fill="#800526" opacity="1.00" d=" M 204.77 155.48 C 213.39 155.48 222.02 155.43 230.64 155.52 C 230.59 157.09 230.53 158.66 230.46 160.24 C 223.42 160.52 216.38 160.36 209.34 160.43 C 206.52 165.64 204.00 171.01 201.58 176.41 C 200.24 179.04 199.07 181.97 196.70 183.85 C 190.45 185.27 183.93 184.23 177.57 184.33 C 177.64 182.75 177.71 181.18 177.80 179.61 C 182.95 179.55 188.10 179.68 193.25 179.51 C 196.80 171.37 200.59 163.32 204.77 155.48 Z" />
</g>
<g id="#fab839ff">
<path fill="#fab839" opacity="1.00" d=" M 238.34 52.62 C 243.47 50.98 249.00 52.02 254.29 51.67 C 256.13 51.80 257.95 52.12 259.78 52.35 C 260.02 60.07 259.33 67.76 258.20 75.38 C 257.18 89.45 256.14 103.53 254.38 117.53 C 253.64 123.14 253.74 128.81 253.36 134.44 C 251.61 149.47 250.36 164.56 249.01 179.63 C 242.39 179.64 235.76 179.68 229.14 179.39 C 229.27 175.57 229.39 171.75 229.65 167.93 C 229.87 165.36 230.38 162.82 230.46 160.24 C 230.53 158.66 230.59 157.09 230.64 155.52 C 222.02 155.43 213.39 155.48 204.77 155.48 C 200.59 163.32 196.80 171.37 193.25 179.51 C 188.10 179.68 182.95 179.55 177.80 179.61 C 176.14 179.66 174.50 179.84 172.88 180.16 C 172.57 174.22 177.16 169.81 179.61 164.82 C 192.25 140.75 204.80 116.63 217.37 92.52 C 222.48 82.69 227.94 73.01 232.35 62.83 C 232.67 62.17 233.31 60.86 233.62 60.20 C 234.99 57.57 236.05 54.60 238.34 52.62 M 227.91 107.12 C 223.05 117.53 217.51 127.63 213.11 138.24 C 218.73 138.85 224.36 139.95 230.04 139.38 C 231.72 139.22 233.83 138.36 233.90 136.38 C 234.89 128.63 235.94 120.87 236.48 113.06 C 237.34 104.64 239.14 96.22 238.33 87.72 C 233.71 93.52 231.34 100.64 227.91 107.12 Z" />
<path fill="#fab839" opacity="1.00" d=" M 292.03 61.10 C 293.64 56.09 298.52 52.15 303.90 52.40 C 320.92 52.41 337.94 52.29 354.95 52.46 C 357.97 52.29 359.72 55.09 361.71 56.89 C 358.55 68.78 354.92 80.55 351.13 92.25 C 345.99 92.33 340.85 92.33 335.71 92.32 C 333.83 92.31 331.96 92.27 330.09 92.23 C 331.26 87.78 332.53 83.36 334.08 79.04 C 335.40 75.39 336.18 71.59 336.73 67.76 C 328.13 67.70 319.53 67.69 310.93 67.77 C 309.26 74.81 306.49 81.53 304.84 88.58 C 303.86 91.51 306.51 93.81 308.05 95.97 C 317.00 106.34 326.31 116.40 335.30 126.73 C 338.56 130.10 338.06 135.11 336.76 139.23 C 334.44 146.93 331.90 154.55 329.76 162.30 C 328.37 166.74 327.48 171.67 324.13 175.14 C 320.47 178.77 315.04 179.77 310.06 179.67 C 296.35 179.58 282.63 179.65 268.92 179.65 C 264.98 179.78 260.78 178.23 258.62 174.79 C 258.21 172.20 259.21 169.67 259.90 167.21 C 262.77 158.18 265.60 149.13 268.07 139.97 C 268.23 139.39 268.55 138.21 268.71 137.62 C 275.76 137.60 282.81 137.54 289.86 137.66 C 289.55 138.83 289.26 140.00 288.92 141.16 C 286.98 148.22 284.24 155.08 283.03 162.34 C 284.90 162.65 286.77 162.98 288.66 163.25 C 294.45 163.73 300.29 163.47 306.09 163.46 C 307.77 163.61 308.57 161.75 309.12 160.48 C 311.37 153.28 313.31 145.98 315.74 138.84 C 309.31 130.16 301.53 122.63 294.67 114.32 C 290.78 109.39 285.74 105.36 282.60 99.86 C 281.43 95.25 282.83 90.56 284.25 86.18 C 286.98 77.86 289.32 69.42 292.03 61.10 Z" />
<path fill="#fab839" opacity="1.00" d=" M 370.77 62.66 C 372.43 57.37 377.06 52.25 382.98 52.41 C 399.34 52.35 415.70 52.41 432.06 52.37 C 434.90 52.15 437.42 53.54 439.88 54.74 C 440.23 62.36 437.20 69.45 435.10 76.62 C 433.51 81.63 432.18 86.72 430.46 91.68 C 424.08 91.35 417.34 92.83 411.21 90.80 C 410.12 88.97 411.38 86.91 411.73 85.04 C 413.63 79.40 415.45 73.69 415.88 67.72 C 407.47 67.72 399.06 67.72 390.65 67.72 C 388.50 74.51 385.86 81.20 384.44 88.19 C 383.47 92.17 386.74 95.20 389.04 97.97 C 396.43 105.95 403.42 114.28 410.78 122.28 C 413.40 125.50 416.99 128.57 417.53 132.89 C 417.04 138.13 414.80 143.00 413.42 148.04 C 410.75 155.87 409.08 164.05 405.85 171.67 C 403.41 177.34 396.83 179.68 391.06 179.65 C 377.35 179.64 363.63 179.60 349.92 179.66 C 345.52 179.91 341.47 178.02 337.59 176.19 C 337.64 173.88 337.58 171.52 338.35 169.31 C 341.93 159.06 344.91 148.62 348.25 138.29 C 355.09 138.24 361.94 138.20 368.78 138.35 C 366.85 146.48 364.07 154.36 361.98 162.44 C 370.54 164.30 379.34 163.58 388.03 163.47 C 389.98 155.66 393.05 148.14 394.78 140.28 C 395.46 138.04 393.73 136.19 392.46 134.58 C 388.16 129.56 383.75 124.63 379.02 120.01 C 374.40 115.26 370.38 109.97 365.92 105.08 C 364.31 103.23 362.42 101.45 361.68 99.05 C 361.22 95.82 361.61 92.53 362.58 89.43 C 365.46 80.55 368.12 71.61 370.77 62.66 Z" />
<path fill="#fab839" opacity="1.00" d=" M 49.55 57.51 C 51.91 54.23 55.85 52.13 59.93 52.39 C 75.96 52.36 92.00 52.43 108.03 52.36 C 109.99 52.39 111.98 52.31 113.89 52.77 C 115.84 53.99 117.13 55.94 118.50 57.72 C 115.28 69.79 111.48 81.70 107.75 93.62 C 102.34 93.65 96.94 93.67 91.53 93.66 C 90.04 93.66 88.54 93.63 87.05 93.60 C 87.87 86.76 90.88 80.46 92.31 73.76 C 92.57 72.01 92.74 70.24 92.93 68.47 C 84.64 68.58 76.31 67.95 68.05 68.68 C 65.80 70.26 65.16 73.15 64.29 75.59 C 55.89 104.61 46.49 133.34 38.22 162.40 C 47.38 162.85 56.56 162.49 65.73 162.63 C 67.97 155.64 69.97 148.57 72.11 141.55 C 72.86 139.31 73.96 136.06 76.91 136.44 C 82.33 136.48 87.95 135.84 93.25 136.96 C 93.98 140.32 92.09 143.67 91.39 146.94 C 88.60 155.01 86.78 163.40 83.62 171.33 C 81.37 177.09 74.86 179.60 69.07 179.63 C 56.38 179.69 43.69 179.55 31.00 179.66 C 26.56 179.67 22.04 179.87 17.73 178.62 C 12.94 176.97 14.10 171.29 14.95 167.43 C 24.82 135.67 34.38 103.80 44.17 72.00 C 45.67 67.08 46.53 61.79 49.55 57.51 Z" />
<path fill="#fab839" opacity="1.00" d=" M 157.78 52.47 C 164.73 52.46 171.68 52.41 178.63 52.50 C 178.95 62.65 178.06 72.81 176.64 82.84 C 175.27 90.51 176.02 98.34 174.72 106.01 C 174.18 114.17 173.44 122.31 172.30 130.41 C 171.28 136.91 172.05 143.54 170.90 150.03 C 169.70 159.88 169.53 169.84 167.57 179.60 C 161.46 179.28 155.11 180.49 149.18 178.82 C 147.20 175.21 148.87 170.93 149.36 167.12 C 150.14 163.04 150.39 158.89 150.27 154.74 C 142.22 154.80 134.17 154.56 126.12 154.78 C 123.66 154.79 122.56 157.40 121.50 159.21 C 118.13 166.03 115.14 173.04 111.32 179.63 C 104.84 179.47 98.24 180.23 91.90 178.58 C 105.12 151.55 120.09 125.38 133.10 98.24 C 141.87 83.28 149.13 67.49 157.78 52.47 M 147.64 105.83 C 142.50 116.73 136.84 127.39 132.10 138.48 C 134.34 138.54 136.59 138.58 138.84 138.57 C 143.65 138.46 148.62 139.24 153.29 137.73 C 153.38 133.47 153.43 129.20 153.71 124.95 C 154.22 118.16 156.95 111.60 156.21 104.71 C 156.96 98.97 158.24 93.20 157.35 87.39 C 153.26 93.05 150.83 99.66 147.64 105.83 Z" />
</g>
</svg>
