<?xml version="1.0" encoding="UTF-8" ?>
<!DOCTYPE svg PUBLIC "-//W3C//DTD SVG 1.1//EN" "http://www.w3.org/Graphics/SVG/1.1/DTD/svg11.dtd">
<svg width="316pt" height="330pt" viewBox="0 0 316 330" version="1.1" xmlns="http://www.w3.org/2000/svg">
<g id="#d52b1eff">
<path fill="#d52b1e" opacity="1.00" d=" M 125.59 22.84 C 156.85 18.15 189.62 24.20 217.08 39.88 C 244.79 55.51 267.03 80.62 279.09 110.07 C 288.72 133.25 291.90 158.98 288.59 183.84 C 284.51 215.17 269.52 244.87 247.00 266.99 C 223.32 290.41 191.31 305.25 158.08 307.83 C 127.13 310.71 95.69 302.00 69.58 285.42 C 52.04 274.13 35.86 259.64 25.78 241.15 C 30.36 246.72 36.01 251.54 42.92 253.91 C 49.95 256.55 57.57 256.90 65.00 257.11 C 88.67 257.11 112.33 257.10 135.99 257.11 C 139.44 257.20 142.88 257.07 146.32 256.82 C 148.37 244.37 150.47 231.93 152.59 219.49 C 127.72 219.46 102.86 219.48 78.00 219.48 C 73.34 219.50 68.27 218.57 64.85 215.15 C 60.81 211.28 59.55 205.44 59.40 200.04 C 59.30 192.31 59.38 184.57 59.37 176.84 C 84.00 176.62 108.64 176.87 133.27 176.71 C 135.35 164.61 137.43 152.50 139.58 140.41 C 112.85 140.34 86.12 140.44 59.40 140.37 C 59.34 126.28 59.33 112.20 59.40 98.12 C 88.99 98.02 118.59 98.33 148.17 97.96 C 150.17 85.38 152.34 72.83 154.11 60.22 C 118.87 60.09 83.63 60.36 48.40 60.09 C 69.50 40.18 96.93 27.16 125.59 22.84 Z" />
</g>
</svg>
