<?xml version="1.0" encoding="UTF-8" ?>
<!DOCTYPE svg PUBLIC "-//W3C//DTD SVG 1.1//EN" "http://www.w3.org/Graphics/SVG/1.1/DTD/svg11.dtd">
<svg width="176pt" height="184pt" viewBox="0 0 176 184" version="1.1" xmlns="http://www.w3.org/2000/svg">
<g id="#88c47dff">
<path fill="#88c47d" opacity="1.00" d=" M 0.00 2.94 C 5.17 0.20 11.95 -0.63 16.84 3.13 C 20.65 6.21 25.01 9.38 26.58 14.25 C 26.70 14.75 26.92 15.74 27.03 16.24 C 25.72 14.49 24.43 12.72 23.06 11.02 C 21.39 8.97 19.35 7.25 17.15 5.80 C 13.53 3.26 8.63 0.78 4.35 3.33 C 0.41 5.26 0.90 10.17 1.10 13.83 C 1.79 21.53 1.70 29.27 1.79 37.00 C 2.00 41.65 1.22 46.26 0.00 50.73 L 0.00 2.94 Z" />
</g>
<g id="#acd19bff">
<path fill="#acd19b" opacity="1.00" d=" M 41.46 1.25 C 46.37 0.06 51.52 1.25 56.01 3.34 L 56.88 3.84 L 57.49 4.75 C 52.15 3.61 46.52 1.31 41.07 3.03 C 37.15 4.27 36.04 8.66 34.83 12.09 C 34.84 9.84 34.68 7.55 35.17 5.33 C 36.32 2.91 38.96 1.74 41.46 1.25 Z" />
</g>
<g id="#ffdb6eff">
<path fill="#ffdb6e" opacity="1.00" d=" M 56.01 3.34 C 61.55 0.74 67.85 0.24 73.86 0.96 C 79.08 1.71 78.30 8.28 79.57 12.11 C 77.95 9.47 76.79 6.40 74.46 4.30 C 68.67 3.18 62.71 4.93 56.88 3.84 L 56.01 3.34 Z" />
</g>
<g id="#ffcb6bff">
<path fill="#ffcb6b" opacity="1.00" d=" M 94.66 2.60 C 99.01 -0.02 104.48 0.63 109.24 1.58 C 113.50 2.27 115.91 6.21 118.40 9.29 C 117.95 9.75 117.06 10.68 116.61 11.14 C 116.28 10.68 115.61 9.77 115.28 9.32 C 112.25 3.55 104.97 4.49 99.51 4.76 C 98.14 4.91 96.78 5.10 95.42 5.28 C 94.34 9.69 93.80 14.40 91.42 18.35 C 89.96 20.77 86.69 20.83 84.25 20.21 C 82.99 18.87 82.09 17.26 81.23 15.65 C 84.17 16.28 89.45 18.95 90.76 14.90 C 92.42 10.94 91.39 5.77 94.66 2.60 Z" />
</g>
<g id="#85c15aff">
<path fill="#85c15a" opacity="1.00" d=" M 4.35 3.33 C 8.63 0.78 13.53 3.26 17.15 5.80 C 13.80 4.58 10.25 3.12 6.62 3.67 C 3.32 4.46 3.60 8.46 3.66 11.10 C 4.28 20.39 4.28 29.70 4.23 39.00 C 4.25 44.21 2.98 49.38 3.52 54.58 C 3.72 56.86 5.82 58.61 8.06 58.67 C 11.36 58.82 15.17 57.90 17.17 55.07 C 18.90 52.50 16.84 49.63 16.15 47.08 C 15.45 44.11 15.26 41.05 15.09 38.02 C 18.31 38.40 21.91 38.29 24.57 40.44 C 27.91 43.11 30.27 46.76 32.92 50.07 C 37.07 55.73 44.41 60.69 51.58 57.52 C 52.58 57.22 53.58 56.91 54.58 56.60 L 54.44 57.46 C 48.73 61.41 41.73 59.38 35.61 57.75 C 34.75 57.17 33.92 56.53 33.16 55.82 C 31.13 52.83 29.59 49.50 27.22 46.75 C 25.56 44.82 22.92 44.39 20.65 43.55 C 19.96 49.34 20.43 57.55 13.60 59.80 C 8.73 62.34 3.80 59.26 0.00 56.29 L 0.00 50.73 C 1.22 46.26 2.00 41.65 1.79 37.00 C 1.70 29.27 1.79 21.53 1.10 13.83 C 0.90 10.17 0.41 5.26 4.35 3.33 Z" />
</g>
<g id="#8abf5bff">
<path fill="#8abf5b" opacity="1.00" d=" M 41.07 3.03 C 46.52 1.31 52.15 3.61 57.49 4.75 L 58.01 5.54 C 57.51 5.84 56.49 6.45 55.99 6.75 C 55.50 6.58 54.52 6.24 54.03 6.07 C 49.50 4.48 43.73 1.46 39.65 5.64 C 36.27 8.24 37.60 12.67 38.73 16.04 C 37.32 17.94 36.19 21.10 33.25 20.63 C 30.36 20.81 28.55 18.31 27.03 16.24 C 29.42 17.12 31.91 17.67 34.39 18.19 C 34.54 16.16 34.65 14.13 34.83 12.09 C 36.04 8.66 37.15 4.27 41.07 3.03 Z" />
</g>
<g id="#c9f4ffff">
<path fill="#c9f4ff" opacity="1.00" d=" M 125.39 2.31 C 128.86 1.48 132.47 1.98 136.01 1.99 C 143.69 2.33 151.38 1.81 159.06 1.79 C 163.25 1.71 167.79 3.20 170.26 6.77 C 171.41 8.93 171.63 11.44 172.23 13.79 L 171.76 13.09 C 170.98 11.92 170.14 10.78 169.26 9.68 C 167.21 7.10 165.03 3.97 161.44 3.62 C 155.98 2.90 150.48 3.75 145.00 3.64 C 138.27 3.81 131.34 2.66 124.78 4.71 C 122.59 6.90 120.61 9.29 118.83 11.82 C 118.28 11.65 117.17 11.31 116.61 11.14 C 117.06 10.68 117.95 9.75 118.40 9.29 C 120.73 6.97 122.57 4.08 125.39 2.31 Z" />
<path fill="#c9f4ff" opacity="1.00" d=" M 76.48 110.46 C 79.82 106.57 85.05 104.91 90.08 105.70 C 94.10 105.84 96.29 109.63 99.16 111.86 C 101.26 113.84 104.32 113.82 107.02 113.90 C 106.72 115.55 106.48 117.21 106.24 118.87 C 100.13 118.95 94.08 117.70 87.98 117.88 C 83.83 118.04 83.41 123.39 80.36 125.33 C 78.33 126.04 76.15 126.09 74.02 126.26 C 65.90 126.54 57.18 128.00 49.82 123.57 L 50.47 122.86 C 52.69 121.70 55.50 118.63 57.88 121.06 C 61.03 122.89 64.07 127.32 68.16 125.37 C 70.90 120.39 71.98 114.36 76.48 110.46 Z" />
</g>
<g id="#7fc508ff">
<path fill="#7fc508" opacity="1.00" d=" M 6.62 3.67 C 10.25 3.12 13.80 4.58 17.15 5.80 C 19.35 7.25 21.39 8.97 23.06 11.02 C 24.35 14.33 24.71 17.89 24.99 21.40 C 20.59 19.13 16.94 15.37 12.11 13.98 C 8.31 15.12 9.00 19.72 9.10 22.80 C 9.84 29.45 10.02 36.18 11.31 42.75 C 11.52 45.33 14.26 46.02 16.15 47.08 C 16.84 49.63 18.90 52.50 17.17 55.07 C 15.17 57.90 11.36 58.82 8.06 58.67 C 5.82 58.61 3.72 56.86 3.52 54.58 C 2.98 49.38 4.25 44.21 4.23 39.00 C 4.28 29.70 4.28 20.39 3.66 11.10 C 3.60 8.46 3.32 4.46 6.62 3.67 Z" />
</g>
<g id="#65b714ff">
<path fill="#65b714" opacity="1.00" d=" M 39.65 5.64 C 43.73 1.46 49.50 4.48 54.03 6.07 C 53.15 10.34 52.27 14.71 52.81 19.08 C 53.10 21.88 55.01 24.06 56.49 26.31 C 56.71 26.70 57.17 27.46 57.39 27.84 C 55.68 28.10 53.97 28.37 52.26 28.58 L 51.20 28.66 C 50.88 22.92 50.65 17.11 49.38 11.48 C 49.23 9.34 46.31 8.56 44.70 9.64 C 42.16 11.16 40.38 13.64 38.73 16.04 C 37.60 12.67 36.27 8.24 39.65 5.64 Z" />
</g>
<g id="#65afaeff">
<path fill="#65afae" opacity="1.00" d=" M 145.00 3.64 C 150.48 3.75 155.98 2.90 161.44 3.62 C 165.03 3.97 167.21 7.10 169.26 9.68 C 163.96 4.82 156.50 6.60 150.04 6.92 C 142.49 7.19 134.73 7.65 127.36 5.66 C 126.72 5.42 125.43 4.95 124.78 4.71 C 131.34 2.66 138.27 3.81 145.00 3.64 Z" />
</g>
<g id="#fd8120ff">
<path fill="#fd8120" opacity="1.00" d=" M 56.88 3.84 C 62.71 4.93 68.67 3.18 74.46 4.30 C 76.79 6.40 77.95 9.47 79.57 12.11 C 80.11 13.29 80.66 14.48 81.23 15.65 C 82.09 17.26 82.99 18.87 84.25 20.21 C 86.69 20.83 89.96 20.77 91.42 18.35 C 93.80 14.40 94.34 9.69 95.42 5.28 C 96.78 5.10 98.14 4.91 99.51 4.76 C 99.01 6.67 98.43 8.58 98.35 10.56 C 100.60 14.04 106.78 14.95 106.24 19.97 C 105.76 28.45 97.75 33.55 94.82 41.10 C 97.99 39.66 101.11 38.08 103.87 35.94 C 101.43 38.49 99.04 41.13 97.21 44.16 C 94.78 48.36 95.88 53.58 93.89 57.93 C 91.09 60.02 87.25 59.52 83.98 59.21 C 81.59 58.76 78.51 58.22 77.44 55.70 C 75.75 51.31 75.99 46.04 72.62 42.40 C 68.24 37.41 63.38 32.86 58.41 28.46 C 59.74 20.95 60.73 12.87 58.01 5.54 L 57.49 4.75 L 56.88 3.84 M 79.34 49.87 C 79.30 51.71 79.28 53.55 79.26 55.39 C 83.79 55.89 89.04 59.03 93.29 56.36 C 95.23 52.34 93.38 47.80 92.57 43.72 C 88.17 45.79 84.12 48.67 79.34 49.87 Z" />
</g>
<g id="#ff7c02ff">
<path fill="#ff7c02" opacity="1.00" d=" M 99.51 4.76 C 104.97 4.49 112.25 3.55 115.28 9.32 C 113.39 15.56 112.95 22.12 113.60 28.59 C 110.10 30.68 106.85 33.16 103.87 35.94 C 101.11 38.08 97.99 39.66 94.82 41.10 C 97.75 33.55 105.76 28.45 106.24 19.97 C 106.78 14.95 100.60 14.04 98.35 10.56 C 98.43 8.58 99.01 6.67 99.51 4.76 Z" />
</g>
<g id="#2e84dbff">
<path fill="#2e84db" opacity="1.00" d=" M 118.83 11.82 C 120.61 9.29 122.59 6.90 124.78 4.71 C 125.43 4.95 126.72 5.42 127.36 5.66 C 126.06 7.76 124.27 9.71 123.75 12.18 C 123.55 16.09 124.88 19.92 124.56 23.83 C 124.26 26.96 123.09 29.90 122.35 32.93 C 121.65 33.12 120.25 33.51 119.55 33.71 C 118.90 35.31 118.25 36.90 117.58 38.49 C 117.30 38.98 116.76 39.95 116.48 40.43 C 117.34 30.93 115.45 20.94 118.83 11.82 Z" />
</g>
<g id="#ba6b17ff">
<path fill="#ba6b17" opacity="1.00" d=" M 55.99 6.75 C 56.49 6.45 57.51 5.84 58.01 5.54 C 60.73 12.87 59.74 20.95 58.41 28.46 L 58.21 29.30 C 58.01 28.93 57.60 28.21 57.39 27.84 C 57.17 27.46 56.71 26.70 56.49 26.31 C 57.08 19.80 57.49 13.18 55.99 6.75 Z" />
</g>
<g id="#467bbaff">
<path fill="#467bba" opacity="1.00" d=" M 127.36 5.66 C 134.73 7.65 142.49 7.19 150.04 6.92 C 156.50 6.60 163.96 4.82 169.26 9.68 C 170.14 10.78 170.98 11.92 171.76 13.09 C 171.48 16.44 172.06 20.25 170.26 23.22 C 165.17 26.47 158.29 25.48 153.08 22.92 C 149.88 21.57 146.30 19.04 142.78 20.84 C 139.18 22.64 136.12 25.60 134.13 29.09 C 132.13 32.80 133.63 38.83 138.19 39.72 C 147.78 42.03 157.11 36.77 166.68 37.49 C 171.87 38.40 172.92 45.33 170.24 49.16 C 167.32 53.61 163.46 59.60 157.34 58.85 C 150.89 58.35 144.43 57.89 137.96 58.36 C 133.71 58.39 129.03 59.23 125.21 56.87 C 121.99 54.85 119.11 52.35 116.21 49.90 C 115.97 49.50 115.48 48.72 115.23 48.32 C 115.74 45.71 116.21 43.08 116.48 40.43 C 116.76 39.95 117.30 38.98 117.58 38.49 C 117.39 42.04 116.82 45.99 118.86 49.14 C 120.55 51.70 122.79 54.04 125.59 55.36 C 127.62 55.98 129.77 55.14 131.81 54.93 C 129.59 51.62 126.26 49.28 123.91 46.10 C 122.33 41.93 122.26 37.34 122.35 32.93 C 123.09 29.90 124.26 26.96 124.56 23.83 C 124.88 19.92 123.55 16.09 123.75 12.18 C 124.27 9.71 126.06 7.76 127.36 5.66 M 163.44 11.22 C 162.91 12.41 162.42 13.62 161.82 14.78 C 160.64 17.76 157.16 18.41 154.64 19.85 C 156.92 21.39 159.49 22.50 162.25 22.73 C 164.82 23.02 168.42 23.58 169.68 20.63 C 169.73 17.28 167.96 14.29 166.67 11.31 C 165.59 11.29 164.51 11.26 163.44 11.22 M 161.98 41.76 C 161.52 43.88 161.74 46.11 161.07 48.19 C 159.81 49.88 158.07 51.13 156.48 52.49 C 156.39 53.12 156.21 54.38 156.12 55.01 C 160.86 56.87 164.84 53.00 167.73 49.74 C 169.89 47.43 170.46 43.77 168.99 40.95 C 167.38 38.29 163.25 39.35 161.98 41.76 Z" />
</g>
<g id="#698420ff">
<path fill="#698420" opacity="1.00" d=" M 52.81 19.08 C 52.27 14.71 53.15 10.34 54.03 6.07 C 54.52 6.24 55.50 6.58 55.99 6.75 C 57.49 13.18 57.08 19.80 56.49 26.31 C 55.01 24.06 53.10 21.88 52.81 19.08 Z" />
</g>
<g id="#89c522ff">
<path fill="#89c522" opacity="1.00" d=" M 44.70 9.64 C 46.31 8.56 49.23 9.34 49.38 11.48 C 50.65 17.11 50.88 22.92 51.20 28.66 C 51.23 32.18 50.89 35.68 50.81 39.19 C 49.78 37.66 48.66 36.19 47.56 34.72 C 47.25 38.56 47.45 42.54 46.20 46.23 C 44.28 48.10 41.07 48.84 38.70 47.39 C 36.01 45.95 33.72 43.91 31.36 42.01 C 31.84 44.70 32.28 47.41 32.92 50.07 C 30.27 46.76 27.91 43.11 24.57 40.44 C 21.91 38.29 18.31 38.40 15.09 38.02 C 15.26 41.05 15.45 44.11 16.15 47.08 C 14.26 46.02 11.52 45.33 11.31 42.75 C 10.02 36.18 9.84 29.45 9.10 22.80 C 9.00 19.72 8.31 15.12 12.11 13.98 C 16.94 15.37 20.59 19.13 24.99 21.40 C 24.71 17.89 24.35 14.33 23.06 11.02 C 24.43 12.72 25.72 14.49 27.03 16.24 C 28.55 18.31 30.36 20.81 33.25 20.63 C 36.19 21.10 37.32 17.94 38.73 16.04 C 40.38 13.64 42.16 11.16 44.70 9.64 Z" />
</g>
<g id="#cf8459ff">
<path fill="#cf8459" opacity="1.00" d=" M 115.28 9.32 C 115.61 9.77 116.28 10.68 116.61 11.14 C 115.39 17.49 115.38 24.03 113.70 30.30 C 113.68 29.87 113.63 29.02 113.60 28.59 C 112.95 22.12 113.39 15.56 115.28 9.32 Z" />
</g>
<g id="#8d99b8ff">
<path fill="#8d99b8" opacity="1.00" d=" M 116.61 11.14 C 117.17 11.31 118.28 11.65 118.83 11.82 C 115.45 20.94 117.34 30.93 116.48 40.43 C 116.21 43.08 115.74 45.71 115.23 48.32 C 113.44 43.26 113.65 37.83 113.65 32.55 C 113.67 31.99 113.69 30.86 113.70 30.30 C 115.38 24.03 115.39 17.49 116.61 11.14 Z" />
</g>
<g id="#1d5cb0ff">
<path fill="#1d5cb0" opacity="1.00" d=" M 163.44 11.22 C 164.51 11.26 165.59 11.29 166.67 11.31 C 167.96 14.29 169.73 17.28 169.68 20.63 C 168.42 23.58 164.82 23.02 162.25 22.73 C 159.49 22.50 156.92 21.39 154.64 19.85 C 157.16 18.41 160.64 17.76 161.82 14.78 C 162.42 13.62 162.91 12.41 163.44 11.22 Z" />
</g>
<g id="#c3c499ff">
<path fill="#c3c499" opacity="1.00" d=" M 32.70 15.07 C 33.41 14.08 34.12 13.09 34.83 12.09 C 34.65 14.13 34.54 16.16 34.39 18.19 C 31.91 17.67 29.42 17.12 27.03 16.24 C 26.92 15.74 26.70 14.75 26.58 14.25 C 28.62 14.52 30.66 14.80 32.70 15.07 Z" />
</g>
<g id="#8cbddbff">
<path fill="#8cbddb" opacity="1.00" d=" M 170.26 23.22 C 172.06 20.25 171.48 16.44 171.76 13.09 L 172.23 13.79 C 173.38 16.02 175.18 18.19 175.13 20.82 C 173.37 25.26 168.49 26.90 164.11 27.34 C 160.67 27.33 157.22 27.16 153.82 26.62 C 150.65 25.66 147.46 23.95 144.07 24.51 C 140.91 25.52 137.93 27.92 136.94 31.17 C 136.38 34.38 139.17 37.34 142.18 37.97 C 146.28 39.15 150.25 37.09 153.89 35.45 C 158.97 34.51 164.16 34.60 169.30 34.50 C 170.51 35.74 171.63 37.06 172.65 38.46 C 172.55 42.16 172.54 45.86 172.63 49.56 C 169.45 53.79 166.11 57.93 162.32 61.63 C 155.92 60.62 149.44 60.07 142.96 60.39 C 136.84 60.69 130.63 60.85 124.62 59.47 C 121.24 56.84 118.53 53.47 116.21 49.90 C 119.11 52.35 121.99 54.85 125.21 56.87 C 129.03 59.23 133.71 58.39 137.96 58.36 C 144.43 57.89 150.89 58.35 157.34 58.85 C 163.46 59.60 167.32 53.61 170.24 49.16 C 172.92 45.33 171.87 38.40 166.68 37.49 C 157.11 36.77 147.78 42.03 138.19 39.72 C 133.63 38.83 132.13 32.80 134.13 29.09 C 136.12 25.60 139.18 22.64 142.78 20.84 C 146.30 19.04 149.88 21.57 153.08 22.92 C 158.29 25.48 165.17 26.47 170.26 23.22 Z" />
</g>
<g id="#c4f2ffff">
<path fill="#c4f2ff" opacity="1.00" d=" M 153.82 26.62 C 157.22 27.16 160.67 27.33 164.11 27.34 C 162.53 28.45 161.32 29.96 160.21 31.51 C 163.20 32.62 166.29 33.42 169.30 34.50 C 164.16 34.60 158.97 34.51 153.89 35.45 C 154.94 34.29 156.06 33.14 156.78 31.73 C 157.54 29.49 155.01 28.12 153.82 26.62 Z" />
</g>
<g id="#6fcf71ff">
<path fill="#6fcf71" opacity="1.00" d=" M 52.26 28.58 C 53.97 28.37 55.68 28.10 57.39 27.84 C 57.60 28.21 58.01 28.93 58.21 29.30 C 58.11 29.68 57.91 30.44 57.81 30.82 C 54.64 39.04 57.84 47.82 56.67 56.30 C 56.11 56.59 55.00 57.17 54.44 57.46 L 54.58 56.60 C 55.57 47.20 53.56 37.84 52.26 28.58 Z" />
</g>
<g id="#6eb736ff">
<path fill="#6eb736" opacity="1.00" d=" M 50.81 39.19 C 50.89 35.68 51.23 32.18 51.20 28.66 L 52.26 28.58 C 53.56 37.84 55.57 47.20 54.58 56.60 C 53.58 56.91 52.58 57.22 51.58 57.52 C 51.88 51.39 51.43 45.27 50.81 39.19 Z" />
</g>
<g id="#fdb774ff">
<path fill="#fdb774" opacity="1.00" d=" M 58.21 29.30 L 58.41 28.46 C 63.38 32.86 68.24 37.41 72.62 42.40 C 75.99 46.04 75.75 51.31 77.44 55.70 C 78.51 58.22 81.59 58.76 83.98 59.21 C 87.25 59.52 91.09 60.02 93.89 57.93 C 95.88 53.58 94.78 48.36 97.21 44.16 C 99.04 41.13 101.43 38.49 103.87 35.94 C 106.85 33.16 110.10 30.68 113.60 28.59 C 113.63 29.02 113.68 29.87 113.70 30.30 C 113.69 30.86 113.67 31.99 113.65 32.55 C 107.78 34.79 104.09 40.14 99.50 44.14 C 96.76 47.67 97.53 52.32 97.61 56.47 C 96.16 59.49 94.03 63.26 90.11 62.91 C 85.05 62.60 79.02 62.82 75.49 58.49 C 71.39 54.64 74.08 48.26 71.07 43.89 C 68.31 39.78 64.60 36.40 60.79 33.28 C 59.80 32.46 58.80 31.64 57.81 30.82 C 57.91 30.44 58.11 29.68 58.21 29.30 Z" />
</g>
<g id="#93d3d9ff">
<path fill="#93d3d9" opacity="1.00" d=" M 57.81 30.82 C 58.80 31.64 59.80 32.46 60.79 33.28 C 58.21 38.26 57.99 43.98 58.74 49.43 C 59.34 52.57 58.20 55.61 56.45 58.17 C 56.50 57.70 56.62 56.76 56.67 56.30 C 57.84 47.82 54.64 39.04 57.81 30.82 Z" />
</g>
<g id="#2d67aeff">
<path fill="#2d67ae" opacity="1.00" d=" M 119.55 33.71 C 120.25 33.51 121.65 33.12 122.35 32.93 C 122.26 37.34 122.33 41.93 123.91 46.10 C 126.26 49.28 129.59 51.62 131.81 54.93 C 129.77 55.14 127.62 55.98 125.59 55.36 C 122.79 54.04 120.55 51.70 118.86 49.14 C 116.82 45.99 117.39 42.04 117.58 38.49 C 118.25 36.90 118.90 35.31 119.55 33.71 Z" />
</g>
<g id="#7ac005ff">
<path fill="#7ac005" opacity="1.00" d=" M 47.56 34.72 C 48.66 36.19 49.78 37.66 50.81 39.19 C 51.43 45.27 51.88 51.39 51.58 57.52 C 44.41 60.69 37.07 55.73 32.92 50.07 C 32.28 47.41 31.84 44.70 31.36 42.01 C 33.72 43.91 36.01 45.95 38.70 47.39 C 41.07 48.84 44.28 48.10 46.20 46.23 C 47.45 42.54 47.25 38.56 47.56 34.72 Z" />
</g>
<g id="#2766b0ff">
<path fill="#2766b0" opacity="1.00" d=" M 161.98 41.76 C 163.25 39.35 167.38 38.29 168.99 40.95 C 170.46 43.77 169.89 47.43 167.73 49.74 C 164.84 53.00 160.86 56.87 156.12 55.01 C 156.21 54.38 156.39 53.12 156.48 52.49 C 158.07 51.13 159.81 49.88 161.07 48.19 C 161.74 46.11 161.52 43.88 161.98 41.76 Z" />
</g>
<g id="#b0acaeff">
<path fill="#b0acae" opacity="1.00" d=" M 172.65 38.46 C 173.80 40.43 175.23 42.51 175.13 44.89 C 174.82 46.67 173.58 48.09 172.63 49.56 C 172.54 45.86 172.55 42.16 172.65 38.46 Z" />
<path fill="#b0acae" opacity="1.00" d=" M 122.54 111.53 C 128.38 110.47 134.34 110.33 140.26 110.40 C 141.25 110.59 142.23 110.80 143.22 111.03 C 136.76 113.74 134.81 121.18 129.24 125.03 L 128.56 125.48 C 128.53 124.67 128.46 123.04 128.43 122.23 C 129.46 120.58 130.47 118.92 131.48 117.26 C 128.48 115.39 125.48 113.50 122.54 111.53 Z" />
</g>
<g id="#a7ceb4ff">
<path fill="#a7ceb4" opacity="1.00" d=" M 20.65 43.55 C 22.92 44.39 25.56 44.82 27.22 46.75 C 29.59 49.50 31.13 52.83 33.16 55.82 C 29.84 53.47 27.38 48.02 22.63 49.23 C 20.24 53.01 20.25 58.55 15.77 60.83 C 10.82 64.21 4.81 62.17 0.00 59.67 L 0.00 56.29 C 3.80 59.26 8.73 62.34 13.60 59.80 C 20.43 57.55 19.96 49.34 20.65 43.55 Z" />
</g>
<g id="#ff6900ff">
<path fill="#ff6900" opacity="1.00" d=" M 79.34 49.87 C 84.12 48.67 88.17 45.79 92.57 43.72 C 93.38 47.80 95.23 52.34 93.29 56.36 C 89.04 59.03 83.79 55.89 79.26 55.39 C 79.28 53.55 79.30 51.71 79.34 49.87 Z" />
</g>
<g id="#cfd9ccff">
<path fill="#cfd9cc" opacity="1.00" d=" M 97.61 56.47 C 97.53 52.32 96.76 47.67 99.50 44.14 C 99.73 46.35 100.38 48.53 100.29 50.76 C 99.70 52.79 98.54 54.59 97.61 56.47 Z" />
</g>
<g id="#c1c090ff">
<path fill="#c1c090" opacity="1.00" d=" M 54.44 57.46 C 55.00 57.17 56.11 56.59 56.67 56.30 C 56.62 56.76 56.50 57.70 56.45 58.17 C 54.21 61.53 49.94 62.88 46.08 62.89 C 42.12 62.40 38.83 59.91 35.61 57.75 C 41.73 59.38 48.73 61.41 54.44 57.46 Z" />
</g>
<g id="#a8d1ffff">
<path fill="#a8d1ff" opacity="1.00" d=" M 124.62 59.47 C 130.63 60.85 136.84 60.69 142.96 60.39 C 149.44 60.07 155.92 60.62 162.32 61.63 C 155.27 62.78 148.10 61.76 141.00 62.07 C 135.51 61.96 129.27 63.17 124.62 59.47 Z" />
<path fill="#a8d1ff" opacity="1.00" d=" M 107.02 113.90 C 107.42 113.56 108.21 112.88 108.60 112.55 L 109.42 112.73 C 109.52 114.93 109.82 117.17 109.37 119.35 C 108.78 121.70 106.36 123.19 103.99 122.95 C 98.14 122.60 92.41 121.00 86.51 121.06 C 86.49 123.61 86.47 126.17 86.46 128.73 C 77.63 129.14 68.78 128.81 59.94 129.06 C 55.98 129.33 52.20 127.78 49.26 125.17 C 49.40 124.77 49.68 123.97 49.82 123.57 C 57.18 128.00 65.90 126.54 74.02 126.26 C 76.15 126.09 78.33 126.04 80.36 125.33 C 83.41 123.39 83.83 118.04 87.98 117.88 C 94.08 117.70 100.13 118.95 106.24 118.87 C 106.48 117.21 106.72 115.55 107.02 113.90 Z" />
</g>
<g id="#a29e9bff">
<path fill="#a29e9b" opacity="1.00" d=" M 73.59 97.76 C 75.54 89.95 80.72 83.52 86.89 78.54 C 89.74 80.86 92.92 82.88 95.24 85.77 C 98.15 89.73 99.46 94.64 102.49 98.52 C 104.29 100.81 106.36 102.87 108.48 104.85 C 108.30 106.73 108.10 108.61 107.89 110.49 C 102.20 108.21 98.92 102.03 92.70 100.90 C 86.41 99.11 80.51 102.77 74.55 104.16 C 74.20 102.03 73.84 99.91 73.59 97.76 M 82.50 85.51 C 79.29 90.02 75.67 95.47 76.81 101.28 C 80.02 99.75 83.08 97.92 86.09 96.03 C 89.53 97.73 93.23 98.82 97.08 99.03 C 96.32 94.31 95.42 89.36 92.55 85.41 C 90.11 82.24 84.97 82.50 82.50 85.51 Z" />
</g>
<g id="#707074ff">
<path fill="#707074" opacity="1.00" d=" M 82.50 85.51 C 84.97 82.50 90.11 82.24 92.55 85.41 C 95.42 89.36 96.32 94.31 97.08 99.03 C 93.23 98.82 89.53 97.73 86.09 96.03 C 83.08 97.92 80.02 99.75 76.81 101.28 C 75.67 95.47 79.29 90.02 82.50 85.51 Z" />
</g>
<g id="#bfbcb6ff">
<path fill="#bfbcb6" opacity="1.00" d=" M 69.27 107.26 C 71.95 104.81 72.55 101.06 73.59 97.76 C 73.84 99.91 74.20 102.03 74.55 104.16 C 80.51 102.77 86.41 99.11 92.70 100.90 C 98.92 102.03 102.20 108.21 107.89 110.49 C 108.10 108.61 108.30 106.73 108.48 104.85 C 117.93 110.97 129.92 107.23 140.26 110.40 C 134.34 110.33 128.38 110.47 122.54 111.53 C 125.48 113.50 128.48 115.39 131.48 117.26 C 130.47 118.92 129.46 120.58 128.43 122.23 C 123.31 120.34 118.50 117.73 114.19 114.38 C 112.65 113.69 111.06 113.12 109.42 112.73 L 108.60 112.55 C 103.98 111.94 100.47 108.83 97.14 105.86 C 92.76 101.85 85.96 102.63 80.99 105.05 C 75.36 107.82 72.13 113.56 67.08 117.08 C 63.19 119.33 58.42 117.95 54.27 119.32 C 52.78 120.23 51.67 121.62 50.47 122.86 L 49.82 123.57 C 49.68 123.97 49.40 124.77 49.26 125.17 C 49.16 125.50 48.95 126.16 48.85 126.48 C 46.71 122.77 44.24 118.38 39.78 117.23 C 37.49 116.51 35.89 118.70 34.26 119.88 C 33.63 118.57 33.09 117.22 32.53 115.88 C 35.99 115.24 39.51 115.00 43.02 114.79 C 48.27 114.61 52.86 111.64 58.03 110.99 C 61.87 110.24 66.29 110.17 69.27 107.26 Z" />
</g>
<g id="#f1e2dbff">
<path fill="#f1e2db" opacity="1.00" d=" M 80.99 105.05 C 85.96 102.63 92.76 101.85 97.14 105.86 C 100.47 108.83 103.98 111.94 108.60 112.55 C 108.21 112.88 107.42 113.56 107.02 113.90 C 104.32 113.82 101.26 113.84 99.16 111.86 C 96.29 109.63 94.10 105.84 90.08 105.70 C 85.05 104.91 79.82 106.57 76.48 110.46 C 71.98 114.36 70.90 120.39 68.16 125.37 C 64.07 127.32 61.03 122.89 57.88 121.06 C 55.50 118.63 52.69 121.70 50.47 122.86 C 51.67 121.62 52.78 120.23 54.27 119.32 C 58.42 117.95 63.19 119.33 67.08 117.08 C 72.13 113.56 75.36 107.82 80.99 105.05 Z" />
<path fill="#f1e2db" opacity="1.00" d=" M 51.55 141.19 C 54.76 143.51 58.05 146.10 59.33 150.03 C 59.13 153.80 58.43 157.52 57.57 161.19 L 56.99 160.41 C 57.50 156.75 58.30 153.02 57.75 149.32 C 56.26 146.23 53.46 144.02 51.55 141.19 Z" />
</g>
<g id="#92b9eaff">
<path fill="#92b9ea" opacity="1.00" d=" M 109.42 112.73 C 111.06 113.12 112.65 113.69 114.19 114.38 C 113.58 119.07 110.84 123.53 106.27 125.22 C 101.61 126.52 96.67 124.53 92.01 125.83 C 90.89 127.27 90.17 128.96 89.36 130.58 C 88.06 131.08 86.78 131.65 85.49 132.21 C 80.65 132.29 75.80 132.32 70.95 132.34 C 66.43 132.10 61.83 132.36 57.63 134.21 C 54.95 132.10 51.97 130.44 48.98 128.85 C 48.95 128.26 48.88 127.08 48.85 126.48 C 48.95 126.16 49.16 125.50 49.26 125.17 C 52.20 127.78 55.98 129.33 59.94 129.06 C 68.78 128.81 77.63 129.14 86.46 128.73 C 86.47 126.17 86.49 123.61 86.51 121.06 C 92.41 121.00 98.14 122.60 103.99 122.95 C 106.36 123.19 108.78 121.70 109.37 119.35 C 109.82 117.17 109.52 114.93 109.42 112.73 Z" />
</g>
<g id="#7c787bff">
<path fill="#7c787b" opacity="1.00" d=" M 129.24 125.03 C 134.81 121.18 136.76 113.74 143.22 111.03 C 144.25 112.05 145.99 112.69 146.28 114.25 C 146.83 116.23 144.93 117.56 143.87 118.93 C 140.88 121.93 138.24 125.26 135.43 128.44 C 131.82 132.50 126.80 135.13 123.60 139.59 C 121.89 141.63 122.82 144.35 123.24 146.67 C 123.33 152.17 122.43 157.62 122.15 163.11 C 121.22 158.88 121.06 154.54 120.76 150.24 C 120.32 145.62 120.26 140.84 122.11 136.49 C 122.59 135.15 123.12 133.84 123.65 132.53 C 125.75 130.21 127.48 127.60 129.24 125.03 Z" />
</g>
<g id="#90d3c7ff">
<path fill="#90d3c7" opacity="1.00" d=" M 114.19 114.38 C 118.50 117.73 123.31 120.34 128.43 122.23 C 128.46 123.04 128.53 124.67 128.56 125.48 C 126.08 126.98 123.62 128.62 120.81 129.46 C 110.46 131.99 99.78 128.87 89.36 130.58 C 90.17 128.96 90.89 127.27 92.01 125.83 C 96.67 124.53 101.61 126.52 106.27 125.22 C 110.84 123.53 113.58 119.07 114.19 114.38 Z" />
</g>
<g id="#959590ff">
<path fill="#959590" opacity="1.00" d=" M 34.26 119.88 C 35.89 118.70 37.49 116.51 39.78 117.23 C 44.24 118.38 46.71 122.77 48.85 126.48 C 48.88 127.08 48.95 128.26 48.98 128.85 C 49.04 129.57 49.17 131.00 49.23 131.72 C 49.70 137.92 55.18 141.58 59.62 145.08 C 59.50 146.73 59.42 148.38 59.33 150.03 C 58.05 146.10 54.76 143.51 51.55 141.19 C 49.92 139.16 48.56 136.93 47.02 134.83 C 43.21 129.47 37.68 125.56 34.26 119.88 Z" />
</g>
<g id="#72b1b2ff">
<path fill="#72b1b2" opacity="1.00" d=" M 120.81 129.46 C 123.62 128.62 126.08 126.98 128.56 125.48 L 129.24 125.03 C 127.48 127.60 125.75 130.21 123.65 132.53 C 118.66 131.87 113.63 132.08 108.65 132.72 C 100.79 133.47 92.89 132.69 85.02 132.91 L 85.49 132.21 C 86.78 131.65 88.06 131.08 89.36 130.58 C 99.78 128.87 110.46 131.99 120.81 129.46 Z" />
</g>
<g id="#568bc1ff">
<path fill="#568bc1" opacity="1.00" d=" M 48.98 128.85 C 51.97 130.44 54.95 132.10 57.63 134.21 C 59.31 135.51 60.86 137.06 62.81 137.98 C 65.17 138.63 67.66 138.41 70.09 138.53 C 73.53 138.52 77.03 139.06 80.45 138.44 C 82.52 137.13 83.62 134.83 85.02 132.91 C 92.89 132.69 100.79 133.47 108.65 132.72 C 108.22 136.41 107.80 140.10 107.41 143.80 C 104.77 143.77 102.13 143.74 99.49 143.66 C 97.44 143.19 95.42 142.50 93.31 142.32 C 89.80 144.78 87.37 148.52 83.70 150.80 C 80.37 152.92 77.01 155.40 73.05 156.10 C 70.06 155.87 68.04 152.73 68.00 149.93 C 68.30 147.40 69.55 145.12 70.55 142.82 C 67.06 141.94 63.58 141.01 60.13 139.98 C 57.34 136.25 53.49 133.53 49.23 131.72 C 49.17 131.00 49.04 129.57 48.98 128.85 Z" />
</g>
<g id="#6f5b85ff">
<path fill="#6f5b85" opacity="1.00" d=" M 49.23 131.72 C 53.49 133.53 57.34 136.25 60.13 139.98 C 59.94 141.68 59.75 143.38 59.62 145.08 C 55.18 141.58 49.70 137.92 49.23 131.72 Z" />
</g>
<g id="#87d4c0ff">
<path fill="#87d4c0" opacity="1.00" d=" M 57.63 134.21 C 61.83 132.36 66.43 132.10 70.95 132.34 C 70.66 134.40 70.37 136.46 70.09 138.53 C 67.66 138.41 65.17 138.63 62.81 137.98 C 60.86 137.06 59.31 135.51 57.63 134.21 Z" />
</g>
<g id="#8c77b8ff">
<path fill="#8c77b8" opacity="1.00" d=" M 70.95 132.34 C 75.80 132.32 80.65 132.29 85.49 132.21 L 85.02 132.91 C 83.62 134.83 82.52 137.13 80.45 138.44 C 77.03 139.06 73.53 138.52 70.09 138.53 C 70.37 136.46 70.66 134.40 70.95 132.34 Z" />
</g>
<g id="#4a6b9aff">
<path fill="#4a6b9a" opacity="1.00" d=" M 108.65 132.72 C 113.63 132.08 118.66 131.87 123.65 132.53 C 123.12 133.84 122.59 135.15 122.11 136.49 C 120.76 134.97 119.53 132.55 117.10 133.06 C 114.73 133.33 111.61 133.98 110.77 136.56 C 109.69 139.63 109.33 142.89 108.81 146.09 C 104.93 146.18 101.03 145.93 97.24 145.07 L 96.26 144.89 C 97.07 144.58 98.68 143.97 99.49 143.66 C 102.13 143.74 104.77 143.77 107.41 143.80 C 107.80 140.10 108.22 136.41 108.65 132.72 Z" />
</g>
<g id="#235088ff">
<path fill="#235088" opacity="1.00" d=" M 110.77 136.56 C 111.61 133.98 114.73 133.33 117.10 133.06 C 119.53 132.55 120.76 134.97 122.11 136.49 C 120.26 140.84 120.32 145.62 120.76 150.24 C 119.80 149.45 118.85 148.66 117.90 147.87 C 118.53 143.49 119.22 139.12 119.88 134.74 C 117.34 134.91 114.06 134.00 112.23 136.31 C 111.47 141.43 113.49 146.40 114.81 151.26 C 112.18 155.04 110.11 159.83 105.73 161.86 C 100.54 162.57 95.54 159.74 90.34 160.46 C 87.02 161.04 83.91 162.45 80.89 163.90 C 86.96 158.22 93.30 152.52 97.24 145.07 C 101.03 145.93 104.93 146.18 108.81 146.09 C 109.33 142.89 109.69 139.63 110.77 136.56 Z" />
</g>
<g id="#001c66ff">
<path fill="#001c66" opacity="1.00" d=" M 112.23 136.31 C 114.06 134.00 117.34 134.91 119.88 134.74 C 119.22 139.12 118.53 143.49 117.90 147.87 C 117.73 149.02 117.56 150.18 117.39 151.33 C 116.53 151.31 115.67 151.28 114.81 151.26 C 113.49 146.40 111.47 141.43 112.23 136.31 Z" />
</g>
<g id="#4076c2ff">
<path fill="#4076c2" opacity="1.00" d=" M 60.13 139.98 C 63.58 141.01 67.06 141.94 70.55 142.82 C 69.55 145.12 68.30 147.40 68.00 149.93 C 68.04 152.73 70.06 155.87 73.05 156.10 C 77.01 155.40 80.37 152.92 83.70 150.80 C 87.37 148.52 89.80 144.78 93.31 142.32 C 95.42 142.50 97.44 143.19 99.49 143.66 C 98.68 143.97 97.07 144.58 96.26 144.89 C 89.93 147.10 86.00 153.07 80.13 156.12 C 77.22 157.98 73.68 158.02 70.35 158.18 C 68.28 154.62 66.07 151.14 63.78 147.71 C 62.80 148.83 61.81 149.95 60.89 151.13 C 60.12 154.82 59.94 158.59 59.73 162.34 C 59.32 162.23 58.50 161.99 58.09 161.87 L 57.57 161.19 C 58.43 157.52 59.13 153.80 59.33 150.03 C 59.42 148.38 59.50 146.73 59.62 145.08 C 59.75 143.38 59.94 141.68 60.13 139.98 Z" />
</g>
<g id="#265acdff">
<path fill="#265acd" opacity="1.00" d=" M 80.13 156.12 C 86.00 153.07 89.93 147.10 96.26 144.89 L 97.24 145.07 C 92.83 148.71 88.70 152.66 84.54 156.57 C 81.41 159.58 77.08 161.01 72.79 161.10 C 66.00 162.20 67.21 151.67 60.89 151.13 C 61.81 149.95 62.80 148.83 63.78 147.71 C 66.07 151.14 68.28 154.62 70.35 158.18 C 73.68 158.02 77.22 157.98 80.13 156.12 Z" />
</g>
<g id="#0833bfff">
<path fill="#0833bf" opacity="1.00" d=" M 84.54 156.57 C 88.70 152.66 92.83 148.71 97.24 145.07 C 93.30 152.52 86.96 158.22 80.89 163.90 C 80.40 164.24 79.41 164.90 78.92 165.23 L 78.07 165.22 C 71.93 164.46 65.76 163.73 59.73 162.34 C 59.94 158.59 60.12 154.82 60.89 151.13 C 67.21 151.67 66.00 162.20 72.79 161.10 C 77.08 161.01 81.41 159.58 84.54 156.57 Z" />
</g>
<g id="#bfbebbff">
<path fill="#bfbebb" opacity="1.00" d=" M 123.24 146.67 C 124.08 148.78 125.28 150.80 125.65 153.07 C 125.45 156.18 123.88 159.22 124.66 162.37 C 125.69 166.98 126.69 171.70 129.11 175.81 C 125.77 172.26 123.24 167.88 122.15 163.11 C 122.43 157.62 123.33 152.17 123.24 146.67 Z" />
<path fill="#bfbebb" opacity="1.00" d=" M 46.82 184.00 C 48.72 180.49 49.48 176.55 50.55 172.74 C 50.48 175.39 50.40 178.12 51.20 180.68 C 51.84 182.88 54.48 183.20 56.29 184.00 L 46.82 184.00 Z" />
</g>
<g id="#274562ff">
<path fill="#274562" opacity="1.00" d=" M 117.90 147.87 C 118.85 148.66 119.80 149.45 120.76 150.24 C 121.06 154.54 121.22 158.88 122.15 163.11 C 123.24 167.88 125.77 172.26 129.11 175.81 C 129.75 176.52 130.42 177.23 131.09 177.91 C 130.91 179.17 130.73 180.42 130.55 181.68 C 125.02 182.14 118.82 183.71 113.86 180.37 C 117.56 180.22 122.22 181.13 124.91 177.90 C 123.18 169.67 119.38 162.00 117.89 153.68 C 113.45 155.60 111.71 160.37 108.34 163.46 C 104.33 165.04 99.85 164.23 95.65 164.46 C 100.90 167.83 106.06 171.36 110.85 175.38 C 110.35 175.65 109.36 176.19 108.87 176.46 C 105.35 173.91 102.09 170.95 98.16 169.03 C 88.85 163.83 74.75 166.39 70.53 177.00 C 69.86 175.21 69.19 173.42 68.50 171.63 C 68.68 170.43 68.86 169.23 69.04 168.03 C 72.03 167.04 75.01 166.00 78.07 165.22 L 78.92 165.23 C 79.41 164.90 80.40 164.24 80.89 163.90 C 83.91 162.45 87.02 161.04 90.34 160.46 C 95.54 159.74 100.54 162.57 105.73 161.86 C 110.11 159.83 112.18 155.04 114.81 151.26 C 115.67 151.28 116.53 151.31 117.39 151.33 C 117.56 150.18 117.73 149.02 117.90 147.87 Z" />
</g>
<g id="#00013bff">
<path fill="#00013b" opacity="1.00" d=" M 108.34 163.46 C 111.71 160.37 113.45 155.60 117.89 153.68 C 119.38 162.00 123.18 169.67 124.91 177.90 C 122.22 181.13 117.56 180.22 113.86 180.37 C 112.53 179.36 111.25 178.30 109.94 177.28 C 109.67 177.08 109.14 176.66 108.87 176.46 C 109.36 176.19 110.35 175.65 110.85 175.38 C 106.06 171.36 100.90 167.83 95.65 164.46 C 99.85 164.23 104.33 165.04 108.34 163.46 Z" />
</g>
<g id="#7e8b94ff">
<path fill="#7e8b94" opacity="1.00" d=" M 50.55 172.74 C 51.83 168.23 54.58 164.36 56.99 160.41 L 57.57 161.19 L 58.09 161.87 C 57.71 162.74 57.30 163.59 56.87 164.43 C 53.57 169.30 52.11 175.10 52.79 180.96 C 57.11 181.71 61.52 182.93 65.92 182.17 C 68.46 181.72 69.23 178.85 70.53 177.00 C 74.75 166.39 88.85 163.83 98.16 169.03 C 92.52 169.03 86.83 168.68 81.21 169.39 C 74.78 171.26 71.28 177.83 70.02 184.00 L 56.29 184.00 C 54.48 183.20 51.84 182.88 51.20 180.68 C 50.40 178.12 50.48 175.39 50.55 172.74 Z" />
</g>
<g id="#1a4b8aff">
<path fill="#1a4b8a" opacity="1.00" d=" M 58.09 161.87 C 58.50 161.99 59.32 162.23 59.73 162.34 C 65.76 163.73 71.93 164.46 78.07 165.22 C 75.01 166.00 72.03 167.04 69.04 168.03 C 68.86 169.23 68.68 170.43 68.50 171.63 C 65.60 172.28 62.68 172.84 59.75 173.28 C 58.84 170.31 57.90 167.36 56.87 164.43 C 57.30 163.59 57.71 162.74 58.09 161.87 Z" />
</g>
<g id="#0e1285ff">
<path fill="#0e1285" opacity="1.00" d=" M 78.92 165.23 C 79.41 164.90 80.40 164.24 80.89 163.90 C 80.40 164.24 79.41 164.90 78.92 165.23 Z" />
</g>
<g id="#000033ff">
<path fill="#000033" opacity="1.00" d=" M 52.79 180.96 C 52.11 175.10 53.57 169.30 56.87 164.43 C 57.90 167.36 58.84 170.31 59.75 173.28 C 62.68 172.84 65.60 172.28 68.50 171.63 C 69.19 173.42 69.86 175.21 70.53 177.00 C 69.23 178.85 68.46 181.72 65.92 182.17 C 61.52 182.93 57.11 181.71 52.79 180.96 Z" />
</g>
<g id="#949aa0ff">
<path fill="#949aa0" opacity="1.00" d=" M 109.94 177.28 C 111.25 178.30 112.53 179.36 113.86 180.37 C 118.82 183.71 125.02 182.14 130.55 181.68 C 130.73 180.42 130.91 179.17 131.09 177.91 C 133.15 180.00 135.16 182.13 137.41 184.00 L 110.00 184.00 C 109.99 181.76 109.97 179.52 109.94 177.28 Z" />
</g>
</svg>
