<?xml version="1.0" encoding="utf-8"?>
<!-- Generator: Adobe Illustrator 21.0.0, SVG Export Plug-In . SVG Version: 6.00 Build 0)  -->
<svg version="1.1" id="Layer_1" xmlns="http://www.w3.org/2000/svg" xmlns:xlink="http://www.w3.org/1999/xlink" x="0px" y="0px"
	 viewBox="0 0 108.6 109.8" style="enable-background:new 0 0 108.6 109.8;" xml:space="preserve">
<style type="text/css">
	.st0{fill:#0072C6;}
	.st1{opacity:0;clip-path:url(#SVGID_2_);}
</style>
<g>
	<path class="st0" d="M73.1,18.5c-1.7,0-3.3,0.4-4.8,1.1v20.2c1.5,0.7,3.1,1.1,4.8,1.1c4.5,0,8.3-2.6,10.1-6.5
		c3.7,2.4,6.8,5.7,8.8,9.7c-3.4,1.9-5.8,5.6-5.8,9.8c0,4.5,2.7,8.4,6.5,10.1c-1.8,4.3-4.8,8-8.5,10.7c-1.9-3.5-5.6-5.8-9.8-5.8
		c-2.2,0-4.3,0.7-6.1,1.8v18.8c1.8,1.1,3.8,1.8,6.1,1.8c6.2,0,11.2-5,11.2-11.2c0-0.2,0-0.4,0-0.5c5.3-3.4,9.4-8.5,11.6-14.5l0.2,0
		c6.2,0,11.2-5,11.2-11.2c0-6.2-5-11.2-11.2-11.2c-0.3,0-0.7,0-1,0c-2.5-5.6-6.8-10.3-12.1-13.4C84.2,23.4,79.2,18.5,73.1,18.5"/>
	<path class="st0" d="M24.3,72.6L24.3,72.6c-0.1-0.4-0.1-0.7,0-1.1C24.3,71.9,24.3,72.3,24.3,72.6 M40.5,32.1h13V75l-8.1,0V41.2
		L36.9,75h-8.4l-2.3-9.2c0,0.1,0,0.1,0,0.2l0,0.1c0-0.1,0-0.3,0-0.4L20,41.2V75h-8V32.1l13,0l7.8,29.3L40.5,32.1 M65.1,0L0,11.5
		v86.9l64.5,11.5L65.1,0"/>
	<g>
		<defs>
			<polyline id="SVGID_1_" points="12,32.1 53.5,32.1 53.5,75 12,75 12,32.1 			"/>
		</defs>
		<clipPath id="SVGID_2_">
			<use xlink:href="#SVGID_1_"  style="overflow:visible;"/>
		</clipPath>
		<path class="st1" d="M40.8,51.4l0.2-0.1l0,0L40.8,51.4 M53.5,32.1h-13l-7.7,29.3L25,32.1l-13,0L12,75h8V41.2l6.2,24.5
			c0-0.2,0-0.4,0-0.6l0.1,0c0,0.2,0,0.4-0.1,0.7l2.3,9.2h8.4l8.5-33.8V75h8.1L53.5,32.1"/>
	</g>
</g>
</svg>
