<svg xmlns="http://www.w3.org/2000/svg" viewBox="0 0 591.07 195.05"><defs><style>.cls-1{fill:#81b852;}.cls-2{fill:#f09743;}.cls-3{fill:#6f96cd;}</style></defs><title>Asset 1</title><g id="Layer_2" data-name="Layer 2"><g id="Layer_1-2" data-name="Layer 1"><path class="cls-1" d="M16.24,0C32,.05,47.72,0,63.47.05c20,19.55,39.77,39.31,59.83,58.8q0-22.33,0-44.67Q130.09,6.94,137.21,0c15.74,0,31.48,0,47.23,0,3.88,4.56,8,8.88,11.89,13.47-.11,24.31,0,48.62-.05,72.92q.09,47.07-.23,94.14l-10.52,11.74c-16.46-.08-32.92,0-49.38,0q-28.59-29.42-57.37-58.61c0,15,0,30.09.05,45.13a16.45,16.45,0,0,1-.33,4.32c-3.18,3.27-6.85,6-10.17,9.15-16.1,0-32.21,0-48.31,0-7.35.76-13.38-4.29-20-6.67q0-84,0-168a3.8,3.8,0,0,1,1.3-3.6C6.25,9.34,11.27,4.71,16.24,0Z"/><path class="cls-2" d="M211.23.05c13.8-.07,27.6,0,41.4,0,4.46,4.05,8.86,8.16,13.35,12.18.18,10.36-.06,20.73.13,31.09C274,51,281.7,58.89,289.55,66.63c9-9,18.05-18,27-27,0-9-.18-18,.08-27,4-4.51,8.8-8.21,13-12.54C347,0,364.38.07,381.76,0c4.87,4.42,10.41,8.24,14.92,13,.23,8.4.15,16.83,0,25.24-.29,16.12-.05,32.26-.12,48.38-20.11,20.25-40.36,40.36-60.5,60.57q0,17.86,0,35.74-5.92,6-11.88,11.88c-17.53,0-35.06,0-52.6,0-3.55-3.66-7.21-7.22-10.79-10.86,0-12,0-24.09,0-36.13q-32.24-30.66-64.49-61.31c0-24.3-.06-48.61.05-72.92C201.29,9,206.31,4.59,211.23.05Z"/><path class="cls-3" d="M431.69,0q62.4,0,124.78,0C568,11.61,579.54,23.11,591,34.66c0,13.31,0,26.61,0,39.92-3.43,3.93-7.24,7.49-10.91,11.18q-31.68,0-63.36,0,0-5.49,0-11-22.75,0-45.51,0c0,15.16,0,30.32,0,45.48h45.49c0-3.33,0-6.65,0-10,21.21,0,42.43,0,63.64,0,3.42,3.38,7,6.65,10.53,9.87.17,14.08,0,28.16.07,42.24-10.9,10.86-21.74,21.8-32.68,32.62q-63.34,0-126.7,0-17.7-18.81-35.16-37.84c.11-23.55,0-47.09.06-70.63.07-16.12-.17-32.26.12-48.38Q414.2,19.12,431.69,0Z"/></g></g></svg>