<?xml version="1.0" encoding="UTF-8" ?>
<!DOCTYPE svg PUBLIC "-//W3C//DTD SVG 1.1//EN" "http://www.w3.org/Graphics/SVG/1.1/DTD/svg11.dtd">
<svg width="54pt" height="55pt" viewBox="0 0 54 55" version="1.1" xmlns="http://www.w3.org/2000/svg">
<g id="#ffffffff">
<path fill="#ffffff" opacity="1.00" d=" M 1.81 17.41 C 5.52 7.97 14.80 0.72 25.05 0.21 C 38.30 -1.28 51.16 8.63 54.00 21.47 L 54.00 32.59 C 51.84 42.09 44.37 50.20 35.00 52.92 C 26.27 55.28 16.28 53.59 9.47 47.43 C 0.85 40.36 -2.17 27.75 1.81 17.41 M 22.27 6.33 C 12.14 8.43 4.29 18.55 5.31 28.96 C 5.80 40.63 17.28 50.29 28.88 48.81 C 40.18 48.15 49.77 37.28 48.59 25.93 C 48.18 13.21 34.57 3.18 22.27 6.33 Z" />
<path fill="#ffffff" opacity="1.00" d=" M 15.64 16.60 C 18.70 13.91 23.05 13.36 26.97 13.27 C 30.92 13.35 35.32 13.91 38.38 16.63 C 39.91 20.79 38.83 25.47 39.15 29.84 C 37.94 29.63 36.73 29.42 35.53 29.20 C 34.53 28.01 33.97 25.78 32.04 25.87 C 28.68 25.63 25.29 25.63 21.93 25.88 C 20.03 25.81 19.44 27.99 18.46 29.18 C 17.27 29.42 16.08 29.64 14.90 29.86 C 15.19 25.47 14.17 20.81 15.64 16.60 M 18.19 16.35 C 18.17 17.76 20.59 17.71 21.32 16.88 C 21.35 15.47 18.90 15.47 18.19 16.35 M 32.67 16.87 C 33.40 17.70 35.82 17.76 35.81 16.35 C 35.10 15.48 32.64 15.46 32.67 16.87 M 17.48 23.48 C 23.74 24.39 30.13 23.58 36.45 23.88 C 36.59 22.14 36.70 20.40 36.81 18.66 C 33.79 18.63 30.77 18.61 27.74 18.60 C 27.62 19.53 27.36 21.39 27.24 22.33 C 26.74 21.12 26.33 19.87 25.93 18.62 C 23.04 18.63 20.14 18.61 17.25 18.61 C 17.28 20.23 17.28 21.86 17.48 23.48 Z" />
<path fill="#ffffff" opacity="1.00" d=" M 21.65 29.50 C 25.45 29.56 29.43 28.87 33.07 30.27 C 29.31 30.78 25.51 30.65 21.73 30.63 L 21.65 29.50 Z" />
<path fill="#ffffff" opacity="1.00" d=" M 16.24 31.51 C 17.15 30.23 20.05 31.33 18.92 32.93 C 18.00 34.24 15.14 33.11 16.24 31.51 Z" />
<path fill="#ffffff" opacity="1.00" d=" M 35.12 31.55 C 36.00 30.26 38.94 31.26 37.84 32.89 C 36.96 34.21 34.03 33.17 35.12 31.55 Z" />
<path fill="#ffffff" opacity="1.00" d=" M 20.75 32.56 C 24.85 31.59 29.14 31.69 33.26 32.46 C 29.15 33.33 24.88 33.23 20.75 32.56 Z" />
<path fill="#ffffff" opacity="1.00" d=" M 13.28 34.37 C 22.44 34.25 31.60 34.27 40.76 34.35 C 40.20 35.84 39.54 37.31 38.68 38.66 C 38.58 39.58 38.50 40.50 38.41 41.42 C 36.72 41.40 35.03 41.36 33.33 41.33 C 33.88 40.13 34.44 38.94 35.01 37.76 C 29.67 37.77 24.32 37.76 18.98 37.76 C 19.55 38.95 20.10 40.14 20.64 41.34 C 18.98 41.36 17.31 41.38 15.65 41.40 C 15.55 40.50 15.46 39.61 15.36 38.71 C 14.55 37.32 13.88 35.86 13.28 34.37 Z" />
</g>
<g id="#dc8f25ff">
<path fill="#dc8f25" opacity="1.00" d=" M 22.27 6.33 C 34.57 3.18 48.18 13.21 48.59 25.93 C 49.77 37.28 40.18 48.15 28.88 48.81 C 17.28 50.29 5.80 40.63 5.31 28.96 C 4.29 18.55 12.14 8.43 22.27 6.33 M 15.64 16.60 C 14.17 20.81 15.19 25.47 14.90 29.86 C 16.08 29.64 17.27 29.42 18.46 29.18 C 19.44 27.99 20.03 25.81 21.93 25.88 C 25.29 25.63 28.68 25.63 32.04 25.87 C 33.97 25.78 34.53 28.01 35.53 29.20 C 36.73 29.42 37.94 29.63 39.15 29.84 C 38.83 25.47 39.91 20.79 38.38 16.63 C 35.32 13.91 30.92 13.35 26.97 13.27 C 23.05 13.36 18.70 13.91 15.64 16.60 M 21.65 29.50 L 21.73 30.63 C 25.51 30.65 29.31 30.78 33.07 30.27 C 29.43 28.87 25.45 29.56 21.65 29.50 M 16.24 31.51 C 15.14 33.11 18.00 34.24 18.92 32.93 C 20.05 31.33 17.15 30.23 16.24 31.51 M 35.12 31.55 C 34.03 33.17 36.96 34.21 37.84 32.89 C 38.94 31.26 36.00 30.26 35.12 31.55 M 20.75 32.56 C 24.88 33.23 29.15 33.33 33.26 32.46 C 29.14 31.69 24.85 31.59 20.75 32.56 M 13.28 34.37 C 13.88 35.86 14.55 37.32 15.36 38.71 C 15.46 39.61 15.55 40.50 15.65 41.40 C 17.31 41.38 18.98 41.36 20.64 41.34 C 20.10 40.14 19.55 38.95 18.98 37.76 C 24.32 37.76 29.67 37.77 35.01 37.76 C 34.44 38.94 33.88 40.13 33.33 41.33 C 35.03 41.36 36.72 41.40 38.41 41.42 C 38.50 40.50 38.58 39.58 38.68 38.66 C 39.54 37.31 40.20 35.84 40.76 34.35 C 31.60 34.27 22.44 34.25 13.28 34.37 Z" />
<path fill="#dc8f25" opacity="1.00" d=" M 18.19 16.35 C 18.90 15.47 21.35 15.47 21.32 16.88 C 20.59 17.71 18.17 17.76 18.19 16.35 Z" />
<path fill="#dc8f25" opacity="1.00" d=" M 32.67 16.87 C 32.64 15.46 35.10 15.48 35.81 16.35 C 35.82 17.76 33.40 17.70 32.67 16.87 Z" />
</g>
<g id="#26afc8fd">
<path fill="#26afc8" opacity="1.00" d=" M 17.48 23.48 C 17.28 21.86 17.28 20.23 17.25 18.61 C 20.14 18.61 23.04 18.63 25.93 18.62 C 26.33 19.87 26.74 21.12 27.24 22.33 C 27.36 21.39 27.62 19.53 27.74 18.60 C 30.77 18.61 33.79 18.63 36.81 18.66 C 36.70 20.40 36.59 22.14 36.45 23.88 C 30.13 23.58 23.74 24.39 17.48 23.48 Z" />
</g>
</svg>
