<?xml version="1.0" encoding="UTF-8" ?>
<!DOCTYPE svg PUBLIC "-//W3C//DTD SVG 1.1//EN" "http://www.w3.org/Graphics/SVG/1.1/DTD/svg11.dtd">
<svg width="1000pt" height="723pt" viewBox="0 0 1000 723" version="1.1" xmlns="http://www.w3.org/2000/svg">
<g id="#1e1f28ee">
<path fill="#1e1f28" opacity="0.93" d=" M 315.32 0.00 L 316.65 0.00 C 329.02 1.76 343.14 0.19 353.62 8.38 C 361.79 17.64 367.77 28.54 373.70 39.30 C 380.51 49.32 380.87 62.22 380.79 73.90 C 379.32 80.85 380.86 87.82 380.99 94.80 C 377.59 95.09 380.00 99.43 378.27 101.32 C 372.14 106.62 360.88 107.50 358.12 116.10 C 355.98 121.25 360.20 126.08 363.26 129.75 C 368.89 135.19 374.31 140.99 378.00 147.99 C 382.95 156.55 383.93 166.59 387.39 175.73 C 394.25 200.24 405.97 223.98 405.19 250.00 C 406.88 266.34 409.51 283.99 401.08 299.07 C 396.84 307.73 387.69 312.74 383.38 321.34 C 379.78 330.86 374.90 339.97 373.04 350.07 C 369.40 365.36 369.60 381.12 367.57 396.62 C 366.28 409.49 361.52 421.91 361.99 435.00 C 362.56 446.33 363.54 457.64 362.95 469.01 C 362.43 473.69 359.76 479.60 354.02 478.09 C 348.11 467.69 341.68 457.32 333.19 448.83 C 321.86 439.89 312.00 426.19 296.64 424.41 C 280.58 423.20 264.41 424.96 248.38 423.13 C 246.56 421.07 244.40 419.23 243.26 416.68 C 240.53 401.61 250.29 387.99 249.07 372.99 C 249.33 366.41 247.16 359.80 243.82 354.17 C 237.61 347.36 227.98 346.60 219.93 343.21 C 205.90 337.47 188.70 338.77 177.18 327.82 C 169.72 316.11 171.99 301.15 171.05 287.99 C 173.54 270.36 170.77 252.67 170.87 235.01 C 170.93 224.56 167.14 214.90 165.03 204.83 C 172.12 194.39 169.00 180.75 175.02 170.00 C 182.56 154.73 201.18 150.33 210.97 136.97 C 217.54 129.76 226.68 125.96 235.64 122.56 C 246.93 118.46 257.96 111.66 263.63 100.67 C 266.44 94.53 264.60 87.49 264.83 81.00 C 263.18 72.24 265.28 63.38 268.08 55.09 C 273.67 38.77 277.92 21.09 290.36 8.38 C 297.56 3.03 306.80 1.81 315.32 0.00 Z" />
<path fill="#1e1f28" opacity="0.93" d=" M 252.15 467.10 C 258.66 464.93 266.10 464.97 273.00 464.05 C 290.64 464.16 303.21 477.88 314.01 490.00 C 322.13 499.55 319.59 512.54 320.07 524.00 C 321.86 529.93 320.00 536.25 317.83 541.87 C 315.26 548.96 309.46 554.09 304.77 559.77 C 297.20 566.65 289.73 574.63 278.97 575.97 C 269.28 576.42 259.63 575.22 250.07 573.85 C 243.62 571.87 237.22 568.14 233.93 562.05 C 231.06 542.74 236.43 523.40 235.13 504.00 C 236.85 494.91 237.48 485.27 242.07 477.04 C 244.65 473.03 248.22 469.78 252.15 467.10 Z" />
<path fill="#1e1f28" opacity="0.93" d=" M 323.38 599.43 C 333.73 590.93 342.76 580.95 349.77 569.53 C 353.44 571.85 354.87 575.97 356.04 579.93 C 358.02 588.01 361.45 596.57 368.59 601.45 C 377.91 608.64 391.11 608.78 399.61 617.38 C 402.92 621.68 405.35 627.70 403.01 633.00 C 401.62 641.36 392.90 646.02 385.02 646.05 C 363.43 645.77 342.39 637.09 320.69 640.70 C 318.23 641.79 315.17 642.24 313.53 644.56 C 306.38 651.78 312.88 663.32 307.30 671.30 C 303.68 676.13 297.54 677.70 291.95 678.95 C 280.56 679.56 269.27 677.58 258.03 676.01 C 250.77 675.43 243.35 673.87 237.18 669.82 C 230.18 662.84 227.43 652.66 227.94 642.99 C 227.65 633.24 230.12 623.45 235.00 615.01 C 248.60 615.41 262.20 616.10 275.76 617.34 C 282.61 619.88 291.85 622.72 297.24 616.16 C 300.48 615.04 303.91 614.49 307.02 613.01 C 313.60 609.95 318.04 604.09 323.38 599.43 Z" />
</g>
<g id="#243ba5fb">
<path fill="#243ba5" opacity="1.00" d=" M 474.02 52.03 C 482.70 45.19 494.59 41.73 505.33 45.64 C 512.28 46.95 517.52 51.94 523.00 56.01 C 534.94 64.60 550.72 65.30 562.05 74.97 C 573.50 84.17 589.13 84.60 601.02 92.97 C 604.92 95.34 608.39 98.31 612.30 100.68 C 619.84 104.64 628.08 106.94 635.97 110.09 C 642.62 113.10 648.30 117.81 654.61 121.45 C 661.44 125.75 669.44 127.43 676.97 130.11 C 687.04 133.44 694.39 141.82 704.15 145.82 C 712.36 149.28 721.35 151.06 728.76 156.26 C 736.71 161.66 744.97 166.84 754.27 169.59 C 763.96 172.35 772.84 177.20 781.05 182.98 C 789.21 188.71 798.91 191.33 808.12 194.83 C 813.68 196.76 818.00 201.01 822.99 204.01 C 832.27 210.61 843.81 212.31 853.96 217.08 C 863.32 222.39 871.62 229.77 882.12 232.84 C 891.81 235.55 900.91 239.98 909.02 245.97 C 920.80 254.55 936.59 254.69 947.99 264.01 C 955.52 270.54 964.36 275.14 972.98 280.00 C 977.18 281.69 979.28 289.33 974.68 291.68 C 962.72 298.46 948.85 293.09 935.99 293.96 C 920.67 292.91 904.97 291.81 890.01 296.03 C 880.94 299.39 875.89 309.64 876.93 319.00 C 877.98 335.32 877.22 351.68 876.03 367.99 C 875.97 431.32 875.98 494.66 876.03 558.00 C 873.22 612.92 876.78 668.06 873.94 723.00 L 124.09 723.00 C 124.19 717.86 123.77 712.81 122.07 708.00 C 121.89 677.66 122.04 647.32 122.00 616.99 C 126.25 564.75 122.29 512.19 124.78 459.90 C 125.32 420.94 124.82 381.95 125.00 342.99 C 124.78 331.98 128.33 321.02 125.92 310.06 C 125.09 300.78 117.54 292.49 107.95 292.09 C 94.63 291.84 81.31 292.03 67.99 292.00 C 57.27 291.94 46.75 294.96 35.99 293.98 C 31.59 294.30 27.40 292.62 23.94 290.06 C 20.29 286.74 24.55 282.30 27.20 280.22 C 34.53 275.97 42.41 272.50 48.68 266.64 C 57.91 258.05 70.23 254.97 81.64 250.56 C 86.40 248.19 90.67 244.95 95.24 242.26 C 107.20 234.28 122.25 232.63 133.65 223.62 C 142.40 216.16 153.69 213.19 163.53 207.62 C 164.04 206.69 164.54 205.76 165.03 204.83 C 167.14 214.90 170.93 224.56 170.87 235.01 C 170.77 252.67 173.54 270.36 171.05 287.99 C 171.99 301.15 169.72 316.11 177.18 327.82 C 188.70 338.77 205.90 337.47 219.93 343.21 C 227.98 346.60 237.61 347.36 243.82 354.17 C 247.16 359.80 249.33 366.41 249.07 372.99 C 250.29 387.99 240.53 401.61 243.26 416.68 C 244.40 419.23 246.56 421.07 248.38 423.13 C 240.78 423.84 232.91 424.03 225.69 426.72 C 216.04 431.77 211.45 442.51 202.22 448.23 C 193.15 461.55 182.26 473.87 175.49 488.61 C 168.89 507.55 167.92 528.82 173.89 548.09 C 181.78 566.11 193.51 582.66 208.27 595.73 C 213.46 600.54 217.07 607.03 223.16 610.86 C 226.64 613.33 230.96 613.98 235.00 615.01 C 230.12 623.45 227.65 633.24 227.94 642.99 C 227.43 652.66 230.18 662.84 237.18 669.82 C 243.35 673.87 250.77 675.43 258.03 676.01 C 269.27 677.58 280.56 679.56 291.95 678.95 C 297.54 677.70 303.68 676.13 307.30 671.30 C 312.88 663.32 306.38 651.78 313.53 644.56 C 315.17 642.24 318.23 641.79 320.69 640.70 C 342.39 637.09 363.43 645.77 385.02 646.05 C 392.90 646.02 401.62 641.36 403.01 633.00 C 405.35 627.70 402.92 621.68 399.61 617.38 C 391.11 608.78 377.91 608.64 368.59 601.45 C 361.45 596.57 358.02 588.01 356.04 579.93 C 354.87 575.97 353.44 571.85 349.77 569.53 C 352.26 564.72 355.20 560.13 357.08 555.02 C 361.94 542.32 361.21 528.42 360.79 515.09 C 359.17 502.67 357.93 490.05 354.02 478.09 C 359.76 479.60 362.43 473.69 362.95 469.01 C 363.54 457.64 362.56 446.33 361.99 435.00 C 361.52 421.91 366.28 409.49 367.57 396.62 C 369.60 381.12 369.40 365.36 373.04 350.07 C 374.90 339.97 379.78 330.86 383.38 321.34 C 387.69 312.74 396.84 307.73 401.08 299.07 C 409.51 283.99 406.88 266.34 405.19 250.00 C 405.97 223.98 394.25 200.24 387.39 175.73 C 383.93 166.59 382.95 156.55 378.00 147.99 C 374.31 140.99 368.89 135.19 363.26 129.75 C 360.20 126.08 355.98 121.25 358.12 116.10 C 360.88 107.50 372.14 106.62 378.27 101.32 C 380.00 99.43 377.59 95.09 380.99 94.80 C 395.53 89.04 411.44 86.42 424.67 77.66 C 432.10 72.83 439.64 68.06 448.00 64.99 C 457.11 61.64 466.52 58.45 474.02 52.03 M 525.34 423.52 C 520.28 423.93 514.08 425.84 513.60 431.70 C 513.39 440.79 522.16 446.34 526.96 453.06 C 532.04 459.93 535.04 468.03 539.95 475.03 C 547.77 487.37 553.67 500.87 562.30 512.72 C 567.66 518.82 571.61 526.13 572.68 534.27 C 573.55 551.86 573.35 569.62 570.07 586.99 C 570.51 593.94 568.11 602.33 572.59 608.37 C 580.94 622.20 603.06 621.69 613.00 610.00 C 615.42 605.79 617.72 601.03 616.99 596.00 C 615.66 582.95 612.58 569.86 614.65 556.72 C 615.78 545.01 611.40 533.35 613.59 521.67 C 616.19 511.80 625.66 506.20 631.38 498.33 C 636.42 492.64 638.26 485.08 641.31 478.29 C 645.71 466.70 651.88 455.87 658.36 445.33 C 661.20 442.43 662.82 435.97 667.75 436.21 C 678.90 445.86 680.84 462.28 678.21 476.07 C 677.32 508.69 679.08 541.42 676.93 574.00 C 675.51 585.84 672.20 599.15 679.03 609.97 C 684.54 614.67 691.76 617.21 698.99 616.99 C 721.02 616.97 743.24 617.87 765.02 614.02 C 775.76 612.18 782.40 602.76 790.84 596.86 C 796.18 592.93 801.63 588.94 805.23 583.22 C 812.25 572.41 820.37 562.03 824.60 549.70 C 829.18 532.60 828.64 514.63 825.54 497.34 C 825.15 481.79 814.53 469.88 806.17 457.82 C 800.71 449.26 791.80 444.09 783.93 438.09 C 776.60 433.34 769.84 426.34 760.72 425.33 C 746.24 423.29 731.57 424.17 717.00 424.00 C 704.32 424.24 691.42 422.95 678.99 426.01 C 674.71 426.32 671.28 429.61 667.07 429.89 C 659.67 427.65 652.82 423.47 644.94 423.16 C 636.58 422.86 627.26 421.68 620.19 427.18 C 614.29 433.65 612.17 442.46 607.89 449.93 C 602.38 459.03 597.37 470.40 585.94 472.92 C 578.78 472.53 574.93 465.09 572.87 459.08 C 569.19 448.79 571.02 435.79 561.84 428.16 C 551.11 421.00 537.44 422.79 525.34 423.52 M 422.34 424.48 C 419.24 425.08 416.10 425.80 413.30 427.32 C 405.34 434.39 399.62 443.57 391.72 450.72 C 387.58 454.36 385.05 459.64 384.03 464.99 C 384.31 474.66 382.65 484.68 386.05 493.99 C 390.59 504.90 398.48 514.00 407.06 521.93 C 419.27 532.55 437.01 529.96 450.04 538.92 C 458.96 543.26 464.77 554.35 461.00 564.02 C 459.70 571.97 451.90 576.06 444.72 577.65 C 433.04 579.51 420.89 575.57 411.84 568.15 C 405.97 563.18 398.00 557.04 389.96 560.98 C 382.91 563.40 381.40 571.73 380.03 578.06 C 380.23 592.26 391.78 603.05 403.01 609.97 C 416.58 618.35 433.37 617.84 448.66 616.43 C 457.50 615.20 467.05 615.70 474.96 610.95 C 480.13 608.36 483.64 603.64 487.76 599.76 C 495.08 592.35 503.40 584.92 506.58 574.67 C 509.10 564.09 509.39 553.03 507.55 542.33 C 505.52 534.42 499.16 528.80 494.73 522.26 C 482.58 509.19 466.56 500.22 449.95 494.05 C 443.16 490.72 435.36 490.30 429.04 485.95 C 425.35 481.34 422.35 474.88 424.99 468.99 C 426.29 462.05 433.89 458.47 440.34 457.48 C 452.44 456.03 461.58 465.78 472.69 468.41 C 478.62 469.32 486.18 469.47 490.64 464.66 C 496.90 456.72 494.41 444.87 488.76 437.24 C 483.14 431.04 476.55 424.84 467.73 424.32 C 452.64 423.86 437.42 423.58 422.34 424.48 Z" />
<path fill="#243ba5" opacity="1.00" d=" M 728.30 459.28 C 742.62 457.20 756.41 464.90 766.24 474.75 C 772.08 482.95 776.74 491.91 780.93 501.05 C 785.35 516.81 786.20 534.86 777.29 549.25 C 769.21 562.58 757.84 576.51 741.35 578.46 C 735.13 580.32 728.59 578.16 723.66 574.34 C 718.01 568.62 720.31 560.15 720.13 552.99 C 722.11 534.72 722.38 516.36 721.87 497.99 C 720.92 488.37 720.05 478.64 720.94 468.99 C 720.91 464.62 724.55 461.02 728.30 459.28 Z" />
<path fill="#243ba5" opacity="1.00" d=" M 231.10 480.07 C 235.33 472.79 243.69 467.26 252.15 467.10 C 248.22 469.78 244.65 473.03 242.07 477.04 C 237.48 485.27 236.85 494.91 235.13 504.00 C 236.43 523.40 231.06 542.74 233.93 562.05 C 221.84 548.91 208.62 532.70 212.28 513.27 C 212.98 499.74 224.22 490.69 231.10 480.07 Z" />
<path fill="#243ba5" opacity="1.00" d=" M 275.76 617.34 C 282.86 616.22 290.04 615.70 297.24 616.16 C 291.85 622.72 282.61 619.88 275.76 617.34 Z" />
</g>
<g id="#eaeb5dff">
<path fill="#eaeb5d" opacity="1.00" d=" M 248.38 423.13 C 264.41 424.96 280.58 423.20 296.64 424.41 C 312.00 426.19 321.86 439.89 333.19 448.83 C 341.68 457.32 348.11 467.69 354.02 478.09 C 357.93 490.05 359.17 502.67 360.79 515.09 C 361.21 528.42 361.94 542.32 357.08 555.02 C 355.20 560.13 352.26 564.72 349.77 569.53 C 342.76 580.95 333.73 590.93 323.38 599.43 C 318.04 604.09 313.60 609.95 307.02 613.01 C 303.91 614.49 300.48 615.04 297.24 616.16 C 290.04 615.70 282.86 616.22 275.76 617.34 C 262.20 616.10 248.60 615.41 235.00 615.01 C 230.96 613.98 226.64 613.33 223.16 610.86 C 217.07 607.03 213.46 600.54 208.27 595.73 C 193.51 582.66 181.78 566.11 173.89 548.09 C 167.92 528.82 168.89 507.55 175.49 488.61 C 182.26 473.87 193.15 461.55 202.22 448.23 C 211.45 442.51 216.04 431.77 225.69 426.72 C 232.91 424.03 240.78 423.84 248.38 423.13 M 252.15 467.10 C 243.69 467.26 235.33 472.79 231.10 480.07 C 224.22 490.69 212.98 499.74 212.28 513.27 C 208.62 532.70 221.84 548.91 233.93 562.05 C 237.22 568.14 243.62 571.87 250.07 573.85 C 259.63 575.22 269.28 576.42 278.97 575.97 C 289.73 574.63 297.20 566.65 304.77 559.77 C 309.46 554.09 315.26 548.96 317.83 541.87 C 320.00 536.25 321.86 529.93 320.07 524.00 C 319.59 512.54 322.13 499.55 314.01 490.00 C 303.21 477.88 290.64 464.16 273.00 464.05 C 266.10 464.97 258.66 464.93 252.15 467.10 Z" />
<path fill="#eaeb5d" opacity="1.00" d=" M 525.34 423.52 C 537.44 422.79 551.11 421.00 561.84 428.16 C 571.02 435.79 569.19 448.79 572.87 459.08 C 574.93 465.09 578.78 472.53 585.94 472.92 C 597.37 470.40 602.38 459.03 607.89 449.93 C 612.17 442.46 614.29 433.65 620.19 427.18 C 627.26 421.68 636.58 422.86 644.94 423.16 C 652.82 423.47 659.67 427.65 667.07 429.89 C 671.28 429.61 674.71 426.32 678.99 426.01 C 691.42 422.95 704.32 424.24 717.00 424.00 C 731.57 424.17 746.24 423.29 760.72 425.33 C 769.84 426.34 776.60 433.34 783.93 438.09 C 791.80 444.09 800.71 449.26 806.17 457.82 C 814.53 469.88 825.15 481.79 825.54 497.34 C 828.64 514.63 829.18 532.60 824.60 549.70 C 820.37 562.03 812.25 572.41 805.23 583.22 C 801.63 588.94 796.18 592.93 790.84 596.86 C 782.40 602.76 775.76 612.18 765.02 614.02 C 743.24 617.87 721.02 616.97 698.99 616.99 C 691.76 617.21 684.54 614.67 679.03 609.97 C 672.20 599.15 675.51 585.84 676.93 574.00 C 679.08 541.42 677.32 508.69 678.21 476.07 C 680.84 462.28 678.90 445.86 667.75 436.21 C 662.82 435.97 661.20 442.43 658.36 445.33 C 651.88 455.87 645.71 466.70 641.31 478.29 C 638.26 485.08 636.42 492.64 631.38 498.33 C 625.66 506.20 616.19 511.80 613.59 521.67 C 611.40 533.35 615.78 545.01 614.65 556.72 C 612.58 569.86 615.66 582.95 616.99 596.00 C 617.72 601.03 615.42 605.79 613.00 610.00 C 603.06 621.69 580.94 622.20 572.59 608.37 C 568.11 602.33 570.51 593.94 570.07 586.99 C 573.35 569.62 573.55 551.86 572.68 534.27 C 571.61 526.13 567.66 518.82 562.30 512.72 C 553.67 500.87 547.77 487.37 539.95 475.03 C 535.04 468.03 532.04 459.93 526.96 453.06 C 522.16 446.34 513.39 440.79 513.60 431.70 C 514.08 425.84 520.28 423.93 525.34 423.52 M 728.30 459.28 C 724.55 461.02 720.91 464.62 720.94 468.99 C 720.05 478.64 720.92 488.37 721.87 497.99 C 722.38 516.36 722.11 534.72 720.13 552.99 C 720.31 560.15 718.01 568.62 723.66 574.34 C 728.59 578.16 735.13 580.32 741.35 578.46 C 757.84 576.51 769.21 562.58 777.29 549.25 C 786.20 534.86 785.35 516.81 780.93 501.05 C 776.74 491.91 772.08 482.95 766.24 474.75 C 756.41 464.90 742.62 457.20 728.30 459.28 Z" />
<path fill="#eaeb5d" opacity="1.00" d=" M 422.34 424.48 C 437.42 423.58 452.64 423.86 467.73 424.32 C 476.55 424.84 483.14 431.04 488.76 437.24 C 494.41 444.87 496.90 456.72 490.64 464.66 C 486.18 469.47 478.62 469.32 472.69 468.41 C 461.58 465.78 452.44 456.03 440.34 457.48 C 433.89 458.47 426.29 462.05 424.99 468.99 C 422.35 474.88 425.35 481.34 429.04 485.95 C 435.36 490.30 443.16 490.72 449.95 494.05 C 466.56 500.22 482.58 509.19 494.73 522.26 C 499.16 528.80 505.52 534.42 507.55 542.33 C 509.39 553.03 509.10 564.09 506.58 574.67 C 503.40 584.92 495.08 592.35 487.76 599.76 C 483.64 603.64 480.13 608.36 474.96 610.95 C 467.05 615.70 457.50 615.20 448.66 616.43 C 433.37 617.84 416.58 618.35 403.01 609.97 C 391.78 603.05 380.23 592.26 380.03 578.06 C 381.40 571.73 382.91 563.40 389.96 560.98 C 398.00 557.04 405.97 563.18 411.84 568.15 C 420.89 575.57 433.04 579.51 444.72 577.65 C 451.90 576.06 459.70 571.97 461.00 564.02 C 464.77 554.35 458.96 543.26 450.04 538.92 C 437.01 529.96 419.27 532.55 407.06 521.93 C 398.48 514.00 390.59 504.90 386.05 493.99 C 382.65 484.68 384.31 474.66 384.03 464.99 C 385.05 459.64 387.58 454.36 391.72 450.72 C 399.62 443.57 405.34 434.39 413.30 427.32 C 416.10 425.80 419.24 425.08 422.34 424.48 Z" />
</g>
</svg>
