<?xml version="1.0" encoding="UTF-8" ?>
<!DOCTYPE svg PUBLIC "-//W3C//DTD SVG 1.1//EN" "http://www.w3.org/Graphics/SVG/1.1/DTD/svg11.dtd">
<svg width="394pt" height="68pt" viewBox="0 0 394 68" version="1.1" xmlns="http://www.w3.org/2000/svg">
<g id="#eeeeeeff">
</g>
<g id="#51208eff">
<path fill="#51208e" opacity="1.00" d=" M 17.91 13.44 C 25.88 13.72 33.98 12.74 41.86 14.24 C 50.63 17.43 51.62 31.06 44.36 36.34 C 39.04 39.79 32.31 38.57 26.31 38.84 C 26.32 43.89 26.33 48.95 26.30 54.01 C 23.51 54.00 20.72 53.99 17.94 53.96 C 18.02 40.46 18.24 26.95 17.91 13.44 M 26.31 31.61 C 30.26 31.49 34.65 32.22 38.21 30.15 C 41.51 27.94 40.65 22.49 36.94 21.26 C 33.49 20.35 29.87 20.64 26.34 20.55 C 26.34 24.24 26.28 27.93 26.31 31.61 Z" />
<path fill="#51208e" opacity="1.00" d=" M 144.79 13.45 C 147.46 13.45 150.13 13.32 152.80 13.52 C 153.55 26.96 152.90 40.50 153.10 53.98 C 150.34 54.00 147.58 54.00 144.82 54.00 C 144.77 40.49 144.82 26.97 144.79 13.45 Z" />
<path fill="#51208e" opacity="1.00" d=" M 272.43 13.43 C 275.45 13.44 278.46 13.44 281.48 13.42 C 286.83 26.95 292.39 40.39 297.60 53.96 C 294.49 54.00 291.38 54.00 288.28 54.00 C 287.11 50.96 285.93 47.91 284.76 44.87 C 279.58 44.85 274.39 44.86 269.20 44.85 C 268.06 47.90 266.95 50.95 265.84 54.01 C 262.79 54.00 259.73 54.00 256.68 53.97 C 261.87 40.43 267.20 26.95 272.43 13.43 M 276.89 23.85 C 275.14 28.44 273.49 33.06 271.82 37.67 C 275.22 37.71 278.62 37.71 282.02 37.66 C 280.29 33.07 278.59 28.46 276.89 23.85 Z" />
<path fill="#51208e" opacity="1.00" d=" M 337.80 13.43 C 340.56 13.44 343.32 13.44 346.09 13.46 C 346.11 15.96 346.12 18.47 346.11 20.98 C 343.34 21.00 340.58 21.00 337.81 21.00 C 337.80 18.48 337.79 15.96 337.80 13.43 Z" />
<path fill="#51208e" opacity="1.00" d=" M 110.56 13.43 C 113.23 13.44 115.90 13.43 118.58 13.42 C 118.58 17.99 118.60 22.56 118.52 27.13 C 121.05 25.39 123.77 23.42 127.03 23.77 C 132.86 23.45 138.04 28.35 138.89 33.98 C 140.10 40.61 139.34 49.11 132.99 52.95 C 128.21 56.22 122.07 54.23 117.98 50.81 C 118.02 51.60 118.10 53.19 118.14 53.99 C 115.62 54.00 113.11 54.00 110.59 54.00 C 110.53 40.48 110.60 26.95 110.56 13.43 M 123.37 30.27 C 120.51 31.24 118.75 34.14 118.67 37.08 C 118.19 41.04 119.17 45.93 123.16 47.74 C 126.56 49.12 130.09 46.14 130.66 42.84 C 131.10 40.09 131.18 37.19 130.38 34.50 C 129.51 31.70 126.36 29.30 123.37 30.27 Z" />
<path fill="#51208e" opacity="1.00" d=" M 301.31 18.59 C 303.97 17.06 306.61 15.51 309.27 13.98 C 309.31 17.47 309.32 20.97 309.33 24.46 C 311.09 24.47 312.84 24.48 314.60 24.48 C 314.58 26.66 314.57 28.85 314.56 31.03 C 312.81 31.03 311.07 31.03 309.33 31.03 C 309.33 36.48 309.27 41.93 309.35 47.38 C 311.12 47.39 312.88 47.36 314.65 47.36 C 314.86 49.47 315.09 51.58 315.33 53.69 C 311.54 54.37 307.25 55.44 303.74 53.27 C 301.66 51.95 301.34 49.27 301.29 47.03 C 301.22 41.70 301.34 36.37 301.27 31.04 C 300.40 31.04 298.67 31.03 297.80 31.03 C 297.80 28.85 297.79 26.67 297.78 24.49 C 298.93 24.48 300.09 24.47 301.25 24.46 C 301.26 22.50 301.29 20.55 301.31 18.59 Z" />
<path fill="#51208e" opacity="1.00" d=" M 320.33 18.55 C 322.99 17.04 325.63 15.51 328.27 13.98 C 328.32 17.47 328.32 20.97 328.33 24.46 C 330.09 24.47 331.84 24.48 333.60 24.48 C 333.58 26.66 333.57 28.85 333.56 31.03 C 331.81 31.03 330.07 31.03 328.33 31.03 C 328.33 36.49 328.26 41.96 328.37 47.42 C 330.13 47.38 331.89 47.35 333.66 47.36 C 333.86 49.48 334.09 51.61 334.31 53.73 C 330.53 54.35 326.27 55.42 322.77 53.29 C 320.67 51.98 320.34 49.28 320.29 47.03 C 320.22 41.70 320.34 36.37 320.27 31.04 C 319.40 31.04 317.67 31.03 316.81 31.03 C 316.80 28.85 316.79 26.67 316.78 24.49 C 317.93 24.48 319.08 24.48 320.23 24.47 C 320.27 22.50 320.29 20.52 320.33 18.55 Z" />
<path fill="#51208e" opacity="1.00" d=" M 54.55 24.47 C 57.07 24.47 59.59 24.48 62.10 24.47 C 62.06 25.15 61.97 26.50 61.93 27.17 C 63.30 26.11 64.61 24.94 66.16 24.13 C 68.77 23.27 71.48 24.35 74.03 24.94 C 73.19 27.35 72.34 29.76 71.51 32.17 C 68.87 31.08 64.92 30.36 63.79 33.86 C 61.78 40.35 62.84 47.29 62.57 53.98 C 59.91 54.00 57.25 54.00 54.60 54.01 C 54.53 44.16 54.60 34.32 54.55 24.47 Z" />
<path fill="#51208e" opacity="1.00" d=" M 85.43 24.40 C 90.33 23.16 96.01 23.64 100.06 26.92 C 106.11 31.62 106.93 40.92 103.47 47.39 C 98.39 56.87 82.58 57.06 77.18 47.84 C 72.51 39.75 75.53 26.76 85.43 24.40 M 89.43 30.48 C 81.71 32.16 81.19 44.90 88.42 47.61 C 91.21 48.75 94.17 46.96 95.75 44.70 C 97.28 42.44 97.04 39.55 96.91 36.97 C 96.67 33.33 93.13 30.00 89.43 30.48 Z" />
<path fill="#51208e" opacity="1.00" d=" M 160.46 30.63 C 164.46 22.13 177.83 21.44 183.25 28.79 C 185.87 32.51 186.09 37.20 186.24 41.58 C 179.66 41.64 173.08 41.48 166.51 41.71 C 167.32 45.14 169.64 47.78 172.98 48.94 C 175.15 47.93 176.88 46.30 178.16 44.28 C 180.83 44.71 183.51 45.13 186.18 45.62 C 184.54 48.94 182.44 52.44 178.70 53.64 C 173.30 55.40 166.33 55.02 162.27 50.61 C 157.68 45.19 157.67 36.88 160.46 30.63 M 166.68 36.40 C 170.58 36.58 174.50 36.59 178.40 36.43 C 177.66 33.65 176.22 30.34 172.93 30.06 C 169.31 29.82 167.50 33.44 166.68 36.40 Z" />
<path fill="#51208e" opacity="1.00" d=" M 198.85 27.46 C 203.49 22.88 211.72 22.21 215.97 27.70 C 218.72 25.26 222.15 23.20 225.99 23.83 C 230.42 23.77 234.34 27.53 234.26 31.99 C 234.45 39.33 234.26 46.67 234.30 54.01 C 231.64 54.00 228.97 54.00 226.31 53.98 C 226.15 47.30 226.54 40.61 226.15 33.94 C 226.12 31.86 224.21 29.71 222.02 30.12 C 219.52 30.42 217.66 32.67 217.33 35.09 C 216.43 41.34 217.02 47.69 216.84 53.99 C 214.16 54.00 211.49 54.00 208.81 54.00 C 208.73 47.63 208.91 41.25 208.76 34.87 C 208.83 32.90 208.00 30.61 205.86 30.12 C 202.68 29.60 199.89 32.34 199.66 35.42 C 198.92 41.58 199.49 47.81 199.30 54.00 C 196.63 54.00 193.97 54.00 191.30 53.98 C 191.27 44.15 191.32 34.32 191.27 24.49 C 193.80 24.48 196.33 24.48 198.86 24.49 C 198.85 25.23 198.85 26.72 198.85 27.46 Z" />
<path fill="#51208e" opacity="1.00" d=" M 337.80 24.49 C 340.56 24.48 343.33 24.48 346.10 24.49 C 346.12 34.32 346.12 44.15 346.10 53.98 C 343.34 54.00 340.58 54.00 337.82 54.00 C 337.77 44.17 337.81 34.33 337.80 24.49 Z" />
<path fill="#51208e" opacity="1.00" d=" M 355.42 28.36 C 359.59 23.37 367.26 22.71 373.03 24.93 C 376.75 26.24 378.51 29.97 379.98 33.32 C 377.34 33.90 374.67 34.36 372.03 34.90 C 370.92 33.19 370.10 30.86 367.87 30.39 C 364.37 29.37 360.93 32.61 360.67 36.02 C 360.11 40.27 360.43 46.21 365.29 47.77 C 369.00 48.94 371.38 45.36 372.37 42.35 C 375.05 42.82 377.73 43.24 380.41 43.75 C 379.18 46.58 378.25 49.78 375.74 51.78 C 371.39 55.08 365.36 55.29 360.34 53.57 C 355.91 51.97 353.03 47.55 352.45 42.99 C 351.91 38.01 352.06 32.41 355.42 28.36 Z" />
<path fill="#51208e" opacity="1.00" d=" M 240.95 35.07 C 246.14 35.08 251.34 35.09 256.54 35.06 C 256.57 37.76 256.58 40.47 256.61 43.17 C 251.39 43.21 246.16 43.21 240.94 43.17 C 240.94 40.47 240.94 37.77 240.95 35.07 Z" />
</g>
</svg>
