<svg xmlns="http://www.w3.org/2000/svg" viewBox="0 0 37 37"><defs><style>.cls-1{fill:#aeb53e;}.cls-2{fill:#a5aa4a;}</style></defs><title>Asset 2</title><g id="Layer_2" data-name="Layer 2"><g id="Layer_1-2" data-name="Layer 1"><g id="_aeb53eff" data-name="#aeb53eff"><path class="cls-1" d="M15,0h7.41A19.88,19.88,0,0,1,37,15.1v8.79l-.72-.26c-1.45,7-7.86,12.12-14.71,13.37H14.62A19.85,19.85,0,0,1,0,22V14.61A19.84,19.84,0,0,1,15,0M13.91,2A17.18,17.18,0,0,0,1.74,14.78c-1.79,7,1.76,14.74,7.9,18.36,6.1,4,14.31,3,20-1.36v0l0-.17c5.68-5,7.92-13.76,4.23-20.54C30.58,3.8,21.61-.5,13.91,2Z"/><path class="cls-1" d="M4.62,26.4c-4.78-6.1-2.34-16.72,4.26-21,.51,5.46,1.17,11.11-.2,16.49C6.88,22.9,5.91,24.85,4.62,26.4Z"/></g><g id="_a5aa4aff" data-name="#a5aa4aff"><path class="cls-2" d="M8.88,5.38C16.13-.39,29,2,32.55,10.79c-2.87-.17-4.48-2.87-6.69-4.33C24,9.82,22.27,13.45,20.64,17c-1.64.28-3-1.18-4.56-1.55-2,2.69-3,5.93-4.86,8.71L8.68,21.87C10.05,16.49,9.39,10.84,8.88,5.38Z"/><path class="cls-2" d="M26.09,7.63c1.76,1.38,3.54,2.74,5.22,4.22l1.5-1.23a3.5,3.5,0,0,1-.1,4.65,15.78,15.78,0,0,1-2.81-2.22c-.14,6.19.26,12.4-.26,18.58l0,.17v0L28.4,30.46c0-6.17,0-12.35,0-18.52-.39-.45-1.16-1.33-1.54-1.78-1.13,2.25-2.4,4.44-3.34,6.78,0,5.61,0,11.21,0,16.82l-1.27.69c-.3-4.66.37-9.48-.33-14.05q-2.3-.9-4.52-1.95c-.37,5.4-.06,10.84-.16,16.25l-1.44,0c-.14-4.53,0-9.07-.05-13.61-1.19,1.82-2,3.84-3.06,5.74l-2.09.86a24.64,24.64,0,0,1,.31,5.42c-3-1.56-.38-5.58-1.88-8.13C7.27,25.73,6.67,27.8,5,28.69c-.4-2.37,2-3.77,3.13-5.51l3.1,2.08c2.34-2.45,3.16-6.13,5.3-8.83,1.25.59,2.48,1.2,3.71,1.82C23.06,15.48,23.74,10.93,26.09,7.63Z"/></g></g></g></svg>