<?xml version="1.0" encoding="UTF-8" ?>
<!DOCTYPE svg PUBLIC "-//W3C//DTD SVG 1.1//EN" "http://www.w3.org/Graphics/SVG/1.1/DTD/svg11.dtd">
<svg width="400pt" height="400pt" viewBox="0 0 400 400" version="1.1" xmlns="http://www.w3.org/2000/svg">
<g id="#ffffffff">
</g>
<g id="#f7be56ff">
<path fill="#f7be56" opacity="1.00" d=" M 121.54 17.42 C 138.15 7.88 156.91 2.34 175.97 0.80 C 181.95 -0.08 188.04 -0.26 194.02 0.69 C 212.35 2.12 230.40 6.96 247.02 14.79 C 253.43 17.87 259.85 21.06 265.50 25.44 C 259.54 27.33 253.28 26.25 247.17 26.64 C 214.45 29.40 183.25 43.40 157.84 63.94 C 148.60 71.28 141.00 80.37 132.52 88.52 C 109.36 111.69 86.18 134.85 63.02 158.02 C 58.93 162.12 54.91 166.30 50.56 170.15 C 46.46 158.91 47.41 146.75 47.47 135.01 C 50.96 86.88 79.74 41.45 121.54 17.42 Z" />
<path fill="#f7be56" opacity="1.00" d=" M 149.89 99.94 C 151.36 98.58 153.56 95.96 155.38 98.38 C 165.43 108.09 175.15 118.17 185.16 127.92 C 186.19 129.35 183.99 130.98 183.19 132.14 C 152.51 162.48 122.22 193.21 91.53 223.53 C 88.82 226.12 86.50 229.32 83.01 230.93 C 80.91 229.41 79.13 227.52 77.42 225.59 C 69.01 215.82 62.04 204.80 57.02 192.92 C 87.92 161.87 119.01 131.01 149.89 99.94 Z" />
</g>
<g id="#105ba4ff">
<path fill="#105ba4" opacity="1.00" d=" M 228.69 51.86 C 237.02 50.11 245.57 49.69 254.00 48.69 C 271.28 49.66 288.68 52.14 304.89 58.52 C 344.95 73.94 379.11 106.68 392.47 147.92 C 395.09 157.06 397.83 166.40 397.66 176.01 C 397.82 186.29 397.93 196.60 397.32 206.87 C 394.55 224.92 388.46 242.44 379.67 258.44 C 377.73 262.19 375.53 265.83 372.66 268.95 C 372.15 262.29 372.61 255.60 372.41 248.93 C 368.83 213.13 352.74 178.97 328.43 152.57 C 297.91 122.09 267.44 91.56 236.91 61.09 C 233.89 58.28 230.88 55.39 228.69 51.86 Z" />
<path fill="#105ba4" opacity="1.00" d=" M 171.33 81.27 C 181.55 71.99 193.28 64.30 206.07 59.06 C 237.62 90.48 269.05 122.03 300.56 153.48 C 301.74 154.42 302.07 155.88 301.59 157.29 C 299.34 160.13 296.26 162.16 293.67 164.66 C 285.69 172.35 278.16 180.51 270.01 188.02 C 236.55 154.77 203.31 121.30 169.89 88.02 C 168.97 87.18 168.35 86.16 168.04 84.95 C 168.90 83.54 170.12 82.38 171.33 81.27 Z" />
</g>
<g id="#c13440ff">
<path fill="#c13440" opacity="1.00" d=" M 22.59 140.54 C 24.08 138.27 25.83 136.18 27.30 133.90 C 27.61 146.86 26.08 160.08 29.33 172.78 C 34.93 199.63 47.66 224.83 65.17 245.88 C 70.16 251.85 75.90 257.12 81.38 262.62 C 95.76 277.57 110.84 291.82 125.37 306.64 C 137.36 318.64 149.42 330.58 161.38 342.62 C 164.82 345.76 168.08 349.13 170.44 353.18 C 161.01 354.44 151.52 355.06 142.00 354.75 C 120.01 355.60 98.34 349.08 78.86 339.26 C 59.86 329.24 42.55 315.63 29.30 298.66 C 14.17 279.96 4.25 257.01 1.35 233.12 C 1.60 226.03 -0.95 219.04 0.49 211.99 C 1.23 208.00 1.12 203.93 1.42 199.90 C 4.21 178.91 11.79 158.71 22.59 140.54 Z" />
<path fill="#c13440" opacity="1.00" d=" M 127.08 218.03 C 128.75 216.04 130.97 218.46 132.31 219.64 C 165.40 252.91 198.68 286.00 231.84 319.22 C 223.99 327.45 214.77 334.32 204.83 339.82 C 201.05 341.98 197.22 344.16 193.04 345.43 C 190.02 343.34 187.64 340.51 185.03 337.97 C 155.40 308.26 125.66 278.66 96.05 248.93 C 106.45 238.69 116.70 228.29 127.08 218.03 Z" />
</g>
<g id="#1a3665ff">
<path fill="#1a3665" opacity="1.00" d=" M 313.49 171.41 C 314.25 170.33 315.99 169.84 316.96 170.94 C 327.54 181.63 335.39 194.65 341.71 208.23 C 320.90 229.57 299.58 250.42 278.58 271.58 C 267.35 282.66 256.38 294.03 245.00 304.95 C 234.83 296.15 226.33 285.65 216.50 276.50 C 215.28 274.96 212.00 273.13 213.99 270.99 C 247.11 237.76 280.38 204.66 313.49 171.41 Z" />
<path fill="#1a3665" opacity="1.00" d=" M 336.04 242.04 C 340.02 238.09 343.83 233.92 348.35 230.56 C 351.99 243.55 350.46 257.17 350.62 270.48 C 346.67 312.17 323.16 350.94 289.65 375.66 C 274.20 387.01 256.22 394.87 237.41 398.51 C 225.30 399.19 213.14 398.91 201.00 398.89 C 195.38 398.75 189.63 399.17 184.14 397.70 C 171.35 394.95 159.00 390.32 147.26 384.58 C 141.71 381.49 135.87 378.77 130.99 374.61 C 137.99 374.29 145.01 374.80 152.02 374.43 C 181.19 371.54 209.24 360.08 232.91 342.91 C 239.33 338.41 244.99 332.98 250.94 327.92 C 254.15 325.11 256.49 321.50 259.53 318.53 C 285.05 293.05 310.55 267.55 336.04 242.04 Z" />
</g>
</svg>
