<?xml version="1.0" encoding="UTF-8" ?>
<!DOCTYPE svg PUBLIC "-//W3C//DTD SVG 1.1//EN" "http://www.w3.org/Graphics/SVG/1.1/DTD/svg11.dtd">
<svg width="85pt" height="59pt" viewBox="0 0 85 59" version="1.1" xmlns="http://www.w3.org/2000/svg">
<g id="#8e7c15ff">
<path fill="#8e7c15" opacity="1.00" d=" M 47.80 1.33 C 48.92 1.32 50.05 1.31 51.18 1.30 C 52.04 2.47 52.96 3.59 53.72 4.82 C 54.85 7.92 54.82 11.26 52.94 14.06 C 53.65 15.06 54.35 16.06 55.05 17.06 C 55.51 17.29 56.43 17.74 56.89 17.97 L 56.91 18.57 C 57.33 24.37 56.75 30.18 56.84 35.99 C 57.28 41.41 54.25 46.27 54.26 51.67 C 53.49 51.83 51.96 52.15 51.19 52.31 C 51.62 51.51 52.48 49.92 52.92 49.12 C 52.23 50.11 51.54 51.11 50.87 52.12 C 45.76 52.13 40.65 52.12 35.55 52.11 C 35.06 52.10 34.09 52.10 33.60 52.10 C 34.20 49.59 34.54 47.04 34.96 44.51 C 35.48 42.77 36.12 41.08 36.56 39.32 C 37.73 34.61 37.53 29.72 37.27 24.92 C 35.85 26.12 34.43 27.31 33.02 28.51 C 30.30 28.24 27.60 27.84 24.88 27.58 C 25.48 23.69 22.86 19.37 18.65 19.35 C 15.27 12.72 8.00 9.64 2.75 4.74 C 7.07 7.62 11.16 10.83 15.39 13.84 C 17.64 15.48 21.00 14.82 22.83 17.16 C 25.18 19.79 28.11 21.73 31.08 23.59 C 33.62 20.96 35.86 18.03 38.68 15.69 C 40.50 14.03 43.12 14.09 45.35 13.39 C 42.98 9.38 44.24 4.19 47.80 1.33 M 51.90 36.86 C 52.29 34.34 52.24 31.80 52.05 29.27 C 51.42 31.76 50.97 34.37 51.90 36.86 M 51.90 40.71 C 51.87 42.51 51.94 44.33 52.19 46.12 C 52.73 44.31 52.46 42.46 51.90 40.71 Z" />
</g>
<g id="#5148148b">
<path fill="#514814" opacity="0.55" d=" M 73.15 14.98 C 74.87 14.77 76.45 15.60 78.04 16.10 C 78.06 17.36 78.08 18.62 78.11 19.88 C 76.95 18.50 75.44 17.52 73.91 16.60 C 73.52 18.38 73.14 20.17 72.74 21.95 C 72.14 21.07 71.55 20.19 70.95 19.31 C 71.31 19.21 72.02 19.02 72.38 18.93 C 72.31 17.55 71.64 15.86 73.15 14.98 Z" />
</g>
<g id="#b8a53cff">
<path fill="#b8a53c" opacity="1.00" d=" M 73.91 16.60 C 75.44 17.52 76.95 18.50 78.11 19.88 C 77.69 24.82 82.09 27.97 83.12 32.41 C 81.80 36.31 79.60 39.81 77.38 43.25 C 75.74 45.47 77.39 48.11 78.39 50.22 C 78.72 50.72 79.36 51.71 79.69 52.21 C 72.25 51.96 64.80 52.12 57.35 52.10 L 56.39 52.10 C 56.50 50.34 56.55 48.57 56.86 46.83 C 57.45 44.35 59.61 42.57 60.06 40.05 C 60.51 37.31 60.61 34.54 60.80 31.78 C 61.84 28.64 66.78 27.29 68.72 30.30 C 70.55 32.63 69.93 36.15 72.08 38.23 C 74.56 37.90 76.08 35.85 77.59 34.09 C 77.82 29.52 76.61 24.76 72.74 21.95 C 73.14 20.17 73.52 18.38 73.91 16.60 Z" />
<path fill="#b8a53c" opacity="1.00" d=" M 12.67 18.86 C 13.12 19.19 14.01 19.83 14.46 20.16 C 14.44 20.53 14.40 21.26 14.39 21.63 C 14.69 21.73 15.28 21.94 15.58 22.04 C 15.65 23.02 15.78 24.97 15.84 25.94 C 16.66 25.03 18.29 23.21 19.11 22.30 L 18.54 24.29 C 17.73 26.30 16.67 28.19 15.46 29.99 C 15.27 33.36 15.34 36.73 15.46 40.10 C 15.91 40.28 16.82 40.64 17.27 40.82 C 18.48 43.56 20.23 46.75 23.60 46.95 C 21.21 43.80 24.47 40.65 26.82 38.73 C 30.43 36.85 34.66 40.34 33.29 44.28 C 32.94 45.43 32.60 46.59 32.27 47.75 C 31.63 48.41 30.99 49.08 30.35 49.74 C 31.28 50.51 32.21 51.28 33.14 52.05 C 27.23 52.07 21.32 52.15 15.41 52.06 C 13.34 50.58 12.49 47.83 11.45 45.57 C 10.19 38.40 12.54 31.13 11.22 23.95 C 10.73 22.07 11.64 20.36 12.67 18.86 Z" />
</g>
</svg>
