<?xml version="1.0" encoding="UTF-8" ?>
<!DOCTYPE svg PUBLIC "-//W3C//DTD SVG 1.1//EN" "http://www.w3.org/Graphics/SVG/1.1/DTD/svg11.dtd">
<svg width="1280pt" height="766pt" viewBox="0 0 1280 766" version="1.1" xmlns="http://www.w3.org/2000/svg">
<g id="#ffffffff">
</g>
<g id="#fdb812ff">
<path fill="#fdb812" opacity="1.00" d=" M 522.99 136.01 C 524.39 121.24 534.26 106.24 549.13 102.33 C 554.86 101.95 559.02 106.99 561.14 111.77 C 564.52 119.72 565.71 128.45 565.92 137.03 C 565.95 161.40 566.26 185.76 566.53 210.13 C 552.84 213.51 538.00 214.58 524.56 209.56 C 523.98 185.04 523.10 160.53 522.99 136.01 Z" />
<path fill="#fdb812" opacity="1.00" d=" M 310.87 112.87 C 314.76 109.79 320.13 109.49 324.86 110.22 C 333.67 111.94 341.10 117.56 347.44 123.66 C 352.90 128.70 356.76 135.11 361.15 141.04 C 372.37 157.26 384.00 173.38 392.55 191.23 C 383.04 201.89 369.46 208.44 355.36 210.16 C 345.53 193.39 335.38 176.77 324.05 160.96 C 320.72 155.98 315.93 151.97 313.74 146.27 C 309.44 135.79 308.67 123.90 310.87 112.87 Z" />
<path fill="#fdb812" opacity="1.00" d=" M 424.01 152.98 C 424.06 140.84 436.38 131.36 447.99 131.92 C 457.69 133.13 463.59 142.57 465.34 151.45 C 467.54 164.00 469.19 176.64 471.43 189.19 C 457.79 193.24 443.81 196.89 429.48 196.94 C 427.75 182.28 425.81 167.63 424.01 152.98 Z" />
<path fill="#fdb812" opacity="1.00" d=" M 671.04 160.02 C 681.67 155.75 694.37 154.82 704.73 160.35 C 706.99 161.65 709.83 163.05 710.20 165.97 C 711.68 171.53 709.51 177.51 705.51 181.49 C 694.80 191.78 683.93 201.92 673.23 212.24 C 662.03 223.12 650.44 233.65 639.80 245.09 C 627.39 238.26 616.21 228.73 609.01 216.40 C 622.98 200.58 637.46 185.09 653.87 171.75 C 659.32 167.49 664.76 163.02 671.04 160.02 Z" />
<path fill="#fdb812" opacity="1.00" d=" M 177.89 185.94 C 176.96 181.64 181.10 178.47 184.95 178.00 C 193.64 176.75 202.33 179.14 210.63 181.49 C 217.43 183.68 224.45 185.59 230.53 189.48 C 256.82 205.30 279.85 225.94 301.11 247.91 C 294.08 261.00 281.61 270.25 268.09 275.85 C 252.52 255.99 232.52 239.82 210.64 227.38 C 205.84 224.49 200.29 222.74 196.21 218.77 C 186.74 210.27 179.48 198.73 177.89 185.94 Z" />
<path fill="#fdb812" opacity="1.00" d=" M 395.39 251.28 C 437.97 232.67 487.40 227.51 531.99 241.98 C 550.71 247.94 568.26 257.28 584.00 268.99 C 588.46 272.48 592.12 276.85 595.75 281.16 C 608.04 295.88 617.24 313.09 623.07 331.34 L 622.27 331.61 C 619.05 332.58 616.05 334.17 613.42 336.25 C 604.49 343.01 597.85 352.16 591.02 360.91 C 591.80 352.28 591.96 343.62 592.48 334.98 C 592.51 332.06 592.86 329.02 591.83 326.23 C 586.76 324.53 582.01 328.63 577.27 329.99 C 571.24 315.51 561.43 302.64 548.89 293.19 C 537.75 284.74 524.74 278.84 511.11 275.76 C 523.91 283.95 536.31 293.47 544.89 306.21 C 548.95 313.01 553.16 320.71 551.90 328.92 C 550.65 334.70 544.50 337.79 539.00 337.93 C 531.92 337.94 524.96 335.90 518.56 332.99 C 518.77 330.66 517.94 328.51 516.56 326.69 C 515.02 327.64 513.50 328.61 511.97 329.56 C 508.67 327.42 505.44 325.17 502.49 322.57 C 495.26 315.81 486.09 311.75 477.32 307.43 C 477.20 302.69 477.82 297.86 476.80 293.20 C 476.03 291.76 474.03 290.18 472.51 291.53 C 468.52 294.11 465.65 298.02 462.66 301.64 C 436.88 293.35 408.49 292.26 382.58 300.60 C 379.35 301.67 375.62 302.78 374.07 306.14 C 369.24 315.08 366.58 324.98 363.75 334.68 C 358.74 353.07 354.83 371.75 351.19 390.45 C 346.34 379.68 345.22 367.73 344.43 356.08 C 343.76 347.70 344.00 339.30 344.05 330.90 C 337.03 338.44 333.37 348.37 331.23 358.29 C 326.90 378.55 327.01 399.46 328.35 420.05 C 329.24 433.80 334.08 447.39 342.75 458.18 C 352.83 471.02 367.14 479.79 382.08 485.90 C 403.95 494.72 427.52 498.47 450.96 499.82 C 468.06 500.34 485.42 500.53 502.15 496.44 C 518.48 492.77 533.92 485.19 546.65 474.30 C 564.14 471.47 582.06 470.89 599.61 473.60 C 593.76 483.71 587.56 493.86 579.02 501.97 C 564.36 516.54 545.89 526.85 526.41 533.43 C 505.08 540.50 482.42 543.03 460.02 542.30 C 428.26 541.34 397.02 534.07 367.00 523.98 C 335.61 512.55 308.67 488.35 295.61 457.40 C 289.17 442.44 285.88 426.24 285.01 410.01 C 284.80 397.00 284.12 383.93 285.78 370.98 C 288.94 343.88 298.00 316.75 315.61 295.55 C 331.94 275.49 355.82 262.47 380.93 257.13 C 386.15 256.31 390.59 253.28 395.39 251.28 Z" />
<path fill="#fdb812" opacity="1.00" d=" M 659.82 281.04 C 689.81 276.53 719.78 271.69 749.92 268.25 C 760.70 267.64 771.93 269.37 781.57 274.43 C 787.04 277.45 792.38 281.87 794.28 288.05 C 794.86 294.59 788.81 298.87 783.84 301.82 C 774.62 306.76 764.44 309.81 754.17 311.66 C 732.39 313.76 710.61 315.88 688.88 318.45 C 681.26 319.40 673.62 320.27 666.11 321.84 C 658.37 309.87 656.68 294.78 659.82 281.04 Z" />
<path fill="#fdb812" opacity="1.00" d=" M 192.32 299.40 C 196.26 294.60 203.07 292.83 209.09 292.99 C 217.18 293.24 224.06 297.95 230.54 302.30 C 237.47 306.78 244.49 311.11 251.37 315.65 C 248.43 329.72 245.27 345.16 234.47 355.50 C 222.17 348.33 209.68 341.35 198.29 332.77 C 195.02 330.31 191.82 327.36 190.66 323.30 C 188.06 315.49 189.54 306.93 192.32 299.40 Z" />
<path fill="#fdb812" opacity="1.00" d=" M 596.11 373.03 C 598.72 368.15 604.18 364.89 609.78 365.52 C 617.61 366.38 623.42 372.20 629.66 376.39 C 629.37 405.96 620.35 434.84 606.79 460.91 C 602.49 459.50 598.13 457.28 595.70 453.29 C 591.92 447.27 591.35 439.92 591.14 432.99 C 591.09 421.66 591.13 410.33 591.12 399.00 C 591.36 390.21 591.75 380.91 596.11 373.03 Z" />
<path fill="#fdb812" opacity="1.00" d=" M 163.94 390.46 C 189.16 388.95 214.38 387.59 239.60 385.99 C 242.63 396.37 245.35 407.18 243.99 418.08 C 243.62 421.67 241.95 424.93 240.14 427.99 C 214.08 429.38 188.01 430.73 161.95 432.04 C 153.37 432.20 144.78 433.65 136.21 432.75 C 124.72 430.94 113.13 428.51 102.63 423.35 C 97.34 420.55 91.65 416.97 89.69 410.98 C 89.33 407.70 91.66 404.94 93.98 402.94 C 98.86 398.94 105.08 397.15 111.06 395.51 C 128.39 391.49 146.30 391.81 163.94 390.46 Z" />
<path fill="#fdb812" opacity="1.00" d=" M 645.41 435.09 C 645.80 421.37 647.48 407.62 651.65 394.50 C 657.45 395.95 663.28 397.28 668.99 399.07 C 682.32 413.63 702.84 416.67 719.82 425.14 C 723.35 431.04 725.42 438.95 721.13 445.04 C 717.31 450.08 711.77 455.12 705.00 454.78 C 694.91 454.52 685.70 449.87 676.58 446.02 C 673.67 441.35 671.66 436.18 670.25 430.87 C 669.42 428.30 668.76 425.23 666.27 423.74 C 663.66 422.14 659.77 424.02 659.48 427.10 C 658.95 431.33 659.95 435.58 660.02 439.82 C 655.21 438.05 650.34 436.46 645.41 435.09 Z" />
<path fill="#fdb812" opacity="1.00" d=" M 211.56 494.63 C 225.69 485.17 241.65 478.85 257.70 473.49 C 264.86 485.63 270.52 499.14 270.92 513.43 C 257.18 518.38 243.42 523.87 231.35 532.22 C 224.74 535.35 217.25 536.68 209.96 536.00 C 203.19 535.35 196.99 530.93 194.29 524.66 C 191.85 520.19 193.22 514.79 195.53 510.58 C 199.27 503.90 205.34 498.91 211.56 494.63 Z" />
<path fill="#fdb812" opacity="1.00" d=" M 599.30 514.05 C 605.30 501.21 614.34 489.08 627.17 482.46 C 648.38 501.31 669.36 520.47 689.28 540.71 C 694.62 546.38 700.39 551.81 704.39 558.58 C 709.96 567.58 715.04 577.26 716.53 587.86 C 717.18 593.17 716.50 599.65 711.92 603.13 C 705.57 605.63 698.57 603.03 692.75 600.25 C 678.73 592.93 667.97 581.05 657.22 569.74 C 638.43 550.65 619.48 531.69 599.30 514.05 Z" />
<path fill="#fdb812" opacity="1.00" d=" M 335.43 541.27 C 348.36 546.28 361.88 552.83 369.52 564.96 C 358.51 580.50 345.38 594.67 330.01 605.98 C 318.25 614.51 304.88 621.36 290.38 623.58 C 281.67 624.83 272.68 624.44 264.19 622.06 C 261.82 618.92 260.21 614.97 261.35 611.01 C 263.46 602.75 269.72 596.46 275.69 590.74 C 279.99 586.47 285.09 583.16 290.05 579.72 C 299.91 572.76 309.63 565.60 318.99 557.99 C 324.95 552.94 331.21 547.97 335.43 541.27 Z" />
<path fill="#fdb812" opacity="1.00" d=" M 525.26 585.09 C 534.31 574.21 547.66 567.26 561.68 565.65 C 571.48 585.49 580.45 605.84 586.91 627.03 C 590.44 639.36 593.77 652.11 592.91 665.04 C 592.42 671.27 590.25 678.12 584.73 681.67 C 579.13 683.51 573.25 680.68 568.87 677.26 C 560.99 670.78 555.62 661.81 551.32 652.70 C 544.00 632.76 537.18 612.62 529.04 592.99 C 527.89 590.30 526.58 587.69 525.26 585.09 Z" />
<path fill="#fdb812" opacity="1.00" d=" M 429.50 571.15 C 444.12 569.78 458.91 573.56 471.50 581.01 C 466.84 602.19 460.76 623.14 452.10 643.05 C 447.98 652.44 443.12 661.61 436.54 669.53 C 432.32 674.56 426.98 679.10 420.49 680.75 C 415.58 682.08 410.66 678.76 408.47 674.51 C 404.83 667.67 405.05 659.60 405.63 652.11 C 406.68 643.19 407.89 634.10 411.75 625.89 C 418.70 608.03 426.11 590.11 429.50 571.15 Z" />
</g>
<g id="#000000ff">
<path fill="#000000" opacity="1.00" d=" M 472.51 291.53 C 474.03 290.18 476.03 291.76 476.80 293.20 C 477.82 297.86 477.20 302.69 477.32 307.43 C 477.42 314.58 477.18 321.75 477.42 328.90 C 477.42 331.42 479.39 333.81 481.97 333.97 C 487.63 334.22 493.30 333.99 498.97 334.07 C 503.74 334.40 508.00 331.87 511.97 329.56 C 513.50 328.61 515.02 327.64 516.56 326.69 C 517.94 328.51 518.77 330.66 518.56 332.99 C 518.15 336.40 517.65 339.94 515.81 342.92 C 513.66 346.78 509.33 348.98 505.04 349.40 C 497.05 350.06 489.00 349.07 481.04 349.90 C 478.19 350.28 477.26 353.48 477.32 355.93 C 477.38 381.96 477.27 408.00 477.38 434.03 C 477.75 440.11 477.45 446.72 480.84 452.06 C 484.09 457.00 490.58 458.52 496.14 457.71 C 502.75 457.00 508.69 453.78 515.06 452.14 C 517.31 451.41 519.46 452.53 521.23 453.82 C 521.92 461.70 514.48 466.36 508.25 469.17 C 497.18 473.91 485.28 477.79 473.09 477.17 C 464.05 476.99 454.03 474.17 448.66 466.35 C 443.33 458.05 443.02 447.76 442.45 438.21 C 442.24 413.16 442.40 388.10 442.37 363.04 C 442.28 358.58 443.13 353.54 439.94 349.89 C 435.57 349.37 431.12 349.98 426.78 349.23 C 424.96 349.04 424.09 347.26 422.97 346.08 C 431.91 334.18 443.55 324.67 453.41 313.58 C 456.58 309.66 459.58 305.62 462.66 301.64 C 465.65 298.02 468.52 294.11 472.51 291.53 Z" />
<path fill="#000000" opacity="1.00" d=" M 577.27 329.99 C 582.01 328.63 586.76 324.53 591.83 326.23 C 592.86 329.02 592.51 332.06 592.48 334.98 C 591.96 343.62 591.80 352.28 591.02 360.91 C 597.85 352.16 604.49 343.01 613.42 336.25 C 616.05 334.17 619.05 332.58 622.27 331.61 C 627.37 330.36 632.60 332.45 636.98 334.97 C 642.41 338.34 647.80 342.48 650.68 348.36 C 653.00 353.66 650.50 359.44 648.21 364.29 C 645.47 369.57 642.82 375.51 637.54 378.74 C 634.69 380.38 631.99 377.76 629.66 376.39 C 623.42 372.20 617.61 366.38 609.78 365.52 C 604.18 364.89 598.72 368.15 596.11 373.03 C 591.75 380.91 591.36 390.21 591.12 399.00 C 591.13 410.33 591.09 421.66 591.14 432.99 C 591.35 439.92 591.92 447.27 595.70 453.29 C 598.13 457.28 602.49 459.50 606.79 460.91 C 610.74 462.24 615.40 462.33 618.52 465.43 C 620.29 467.13 620.49 470.08 618.91 471.97 C 617.07 474.32 613.81 474.39 611.09 474.41 C 607.26 474.27 603.42 474.02 599.61 473.60 C 582.06 470.89 564.14 471.47 546.65 474.30 C 543.78 474.69 539.98 474.20 539.18 470.88 C 537.83 466.62 542.39 464.15 545.37 462.28 C 552.54 458.26 556.16 449.94 556.11 441.95 C 556.19 419.63 556.14 397.31 556.13 374.99 C 555.92 368.94 555.70 362.18 551.82 357.20 C 547.75 352.38 540.55 354.57 535.46 351.78 C 532.13 350.09 532.63 344.30 536.17 343.22 C 542.39 341.14 548.92 340.16 555.23 338.40 C 562.88 336.44 569.97 332.92 577.27 329.99 Z" />
<path fill="#000000" opacity="1.00" d=" M 674.07 342.21 C 684.56 333.44 698.56 330.25 711.97 330.07 C 719.63 330.07 727.38 330.13 734.92 331.67 C 739.29 332.71 743.83 334.67 746.45 338.51 C 748.71 341.87 748.61 346.08 748.94 349.96 C 749.10 355.63 750.23 361.26 749.75 366.95 C 749.42 369.37 746.40 370.33 744.32 369.72 C 741.51 368.63 740.16 365.73 738.85 363.24 C 734.11 353.13 725.07 344.73 714.05 342.13 C 706.96 340.51 699.17 340.26 692.43 343.31 C 682.67 347.90 682.20 362.54 689.23 369.74 C 696.89 377.63 708.03 380.16 717.83 384.38 C 731.15 390.14 744.60 397.81 752.52 410.41 C 759.39 421.28 758.90 435.14 755.09 447.00 C 751.25 458.85 741.36 468.02 729.94 472.54 C 716.34 477.95 701.15 478.25 686.88 475.61 C 678.16 473.93 669.36 472.52 660.89 469.79 C 659.80 459.85 660.86 449.79 660.02 439.82 C 659.95 435.58 658.95 431.33 659.48 427.10 C 659.77 424.02 663.66 422.14 666.27 423.74 C 668.76 425.23 669.42 428.30 670.25 430.87 C 671.66 436.18 673.67 441.35 676.58 446.02 C 681.90 454.89 689.47 463.17 699.66 466.22 C 707.53 468.44 716.63 468.07 723.61 463.44 C 734.07 456.58 735.65 439.93 727.18 430.90 C 725.07 428.58 722.49 426.74 719.82 425.14 C 702.84 416.67 682.32 413.63 668.99 399.07 C 661.62 390.68 659.58 378.90 660.71 368.07 C 661.51 358.13 666.29 348.52 674.07 342.21 Z" />
</g>
<g id="#d1d2d4ff">
<path fill="#d1d2d4" opacity="1.00" d=" M 794.68 332.73 C 799.07 331.09 803.13 328.49 807.71 327.41 C 810.62 327.25 810.91 330.83 811.15 332.96 C 811.54 339.97 811.16 347.01 811.33 354.04 C 821.61 345.18 832.72 336.69 845.91 332.78 C 860.95 328.27 878.60 330.92 890.57 341.45 C 894.81 345.21 898.71 349.51 901.29 354.62 C 904.78 361.69 906.42 369.53 907.60 377.29 C 910.61 400.18 908.48 423.33 909.52 446.32 C 909.79 451.75 911.62 457.41 916.03 460.90 C 921.06 465.75 928.56 464.28 934.76 466.23 C 934.91 467.80 935.13 469.38 935.14 470.98 C 934.85 472.89 932.79 473.69 931.09 473.76 C 925.36 474.07 919.65 473.19 913.95 472.80 C 901.90 471.65 889.73 471.98 877.73 473.57 C 875.52 473.58 872.15 474.54 871.24 471.74 C 870.44 468.57 873.38 466.36 875.51 464.60 C 878.64 462.08 882.32 459.72 883.69 455.73 C 886.17 448.77 886.34 441.26 886.32 433.95 C 886.23 420.62 886.40 407.28 886.25 393.94 C 885.76 382.30 885.08 370.07 879.33 359.64 C 874.50 350.96 864.75 346.05 855.07 345.33 C 845.24 344.73 834.80 345.07 825.99 349.97 C 819.41 353.38 814.62 359.77 812.73 366.89 C 810.99 373.10 811.29 379.61 811.29 385.99 C 811.30 402.65 811.30 419.31 811.29 435.97 C 811.33 440.68 811.30 445.41 812.12 450.07 C 813.15 456.12 817.45 461.55 823.22 463.73 C 827.84 465.57 833.09 464.58 837.67 466.56 C 840.49 468.04 840.14 473.07 836.75 473.53 C 830.53 474.34 824.26 473.24 818.04 472.93 C 805.42 471.72 792.67 471.90 780.09 473.46 C 777.64 473.64 775.10 474.07 772.70 473.40 C 770.71 472.14 770.80 468.98 772.51 467.54 C 775.94 464.28 780.60 462.33 783.18 458.20 C 787.13 451.94 787.62 444.25 787.75 437.04 C 787.75 413.69 787.75 390.33 787.75 366.97 C 787.75 361.83 786.80 355.89 782.39 352.63 C 777.79 349.34 771.86 350.61 766.70 349.27 C 764.18 348.61 763.96 345.78 764.59 343.69 C 766.38 341.97 769.04 341.99 771.33 341.42 C 779.63 340.12 786.94 335.73 794.68 332.73 Z" />
<path fill="#d1d2d4" opacity="1.00" d=" M 1086.30 335.29 C 1100.51 329.82 1116.21 329.81 1131.08 332.10 C 1136.95 333.17 1143.01 334.62 1147.97 338.10 C 1152.52 341.56 1152.36 347.81 1152.34 352.97 C 1152.08 358.84 1153.10 364.92 1151.05 370.59 C 1146.73 368.54 1144.26 364.32 1141.28 360.83 C 1132.54 349.42 1118.42 342.36 1104.05 342.23 C 1095.69 341.80 1086.95 343.95 1080.50 349.47 C 1071.50 357.04 1067.04 368.67 1065.31 380.03 C 1063.10 395.70 1064.11 412.13 1070.15 426.88 C 1075.31 439.04 1084.41 450.02 1096.75 455.29 C 1109.45 460.57 1124.12 460.88 1137.09 456.32 C 1148.34 452.71 1158.16 445.96 1168.52 440.47 C 1169.03 444.08 1167.43 447.48 1164.99 450.04 C 1158.65 457.14 1151.02 463.05 1142.75 467.71 C 1127.78 476.15 1109.91 478.95 1093.00 476.36 C 1079.28 474.23 1066.47 467.03 1057.45 456.48 C 1046.07 443.50 1040.35 426.20 1040.21 409.05 C 1039.61 393.08 1043.60 376.83 1052.39 363.40 C 1060.60 351.00 1072.24 340.53 1086.30 335.29 Z" />
<path fill="#d1d2d4" opacity="1.00" d=" M 910.75 338.99 C 909.65 336.37 912.66 334.60 914.93 334.73 C 924.97 334.57 934.96 336.74 945.02 335.99 C 952.36 335.70 959.68 334.42 967.03 334.79 C 970.10 334.54 972.46 338.81 969.87 340.91 C 965.30 343.48 958.88 342.81 955.54 347.43 C 952.65 352.33 955.07 358.20 956.80 363.09 C 968.08 390.45 979.03 417.95 990.49 445.23 C 993.13 441.54 994.21 437.09 995.79 432.90 C 1001.28 417.94 1006.57 402.89 1011.98 387.89 C 1016.11 377.13 1018.85 365.63 1018.25 354.04 C 1018.02 350.43 1016.45 346.64 1013.19 344.80 C 1009.81 342.95 1005.75 343.33 1002.26 341.84 C 999.63 340.70 999.62 336.42 1002.23 335.28 C 1004.70 334.43 1007.38 334.73 1009.96 334.81 C 1017.65 335.34 1025.37 336.17 1033.09 335.49 C 1037.74 335.23 1042.41 334.23 1047.07 334.92 C 1050.23 335.55 1051.08 339.79 1049.01 342.00 C 1045.88 343.76 1041.92 343.73 1039.11 346.08 C 1036.10 349.05 1034.43 353.05 1032.94 356.93 C 1012.19 414.59 991.60 472.30 970.80 529.94 C 969.93 532.93 967.25 534.84 964.29 535.41 C 959.71 536.45 954.85 536.73 950.27 535.61 C 948.11 535.25 946.45 532.71 947.60 530.69 C 949.42 527.02 952.66 524.38 955.32 521.34 C 965.48 510.04 974.22 496.49 975.88 481.06 C 977.32 470.53 972.71 460.56 969.09 450.95 C 955.94 419.41 942.88 387.83 929.70 356.31 C 927.65 350.87 923.42 346.28 917.99 344.14 C 915.39 342.80 911.67 342.21 910.75 338.99 Z" />
</g>
</svg>
