<?xml version="1.0" encoding="utf-8"?>
<!-- Generator: Adobe Illustrator 21.0.0, SVG Export Plug-In . SVG Version: 6.00 Build 0)  -->
<svg version="1.1"
	 id="svg2477" inkscape:output_extension="org.inkscape.output.svg.inkscape" inkscape:version="0.46" sodipodi:docname="UFT Logo.svg" sodipodi:version="0.32" xmlns:cc="http://creativecommons.org/ns#" xmlns:dc="http://purl.org/dc/elements/1.1/" xmlns:inkscape="http://www.inkscape.org/namespaces/inkscape" xmlns:rdf="http://www.w3.org/1999/02/22-rdf-syntax-ns#" xmlns:sodipodi="http://sodipodi.sourceforge.net/DTD/sodipodi-0.dtd" xmlns:svg="http://www.w3.org/2000/svg"
	 xmlns="http://www.w3.org/2000/svg" xmlns:xlink="http://www.w3.org/1999/xlink" x="0px" y="0px" viewBox="0 0 120 95"
	 style="enable-background:new 0 0 120 95;" xml:space="preserve">
<style type="text/css">
	.st0{fill:#FFFFFF;}
</style>
<defs>
	
	
		<inkscape:perspective  id="perspective2484" inkscape:persp3d-origin="372.04724 : 350.78739 : 1" inkscape:vp_x="0 : 526.18109 : 1" inkscape:vp_y="0 : 1000 : 0" inkscape:vp_z="744.09448 : 526.18109 : 1" sodipodi:type="inkscape:persp3d">
		</inkscape:perspective>
</defs>
<sodipodi:namedview  bordercolor="#666666" borderopacity="1.0" gridtolerance="10.0" guidetolerance="10.0" id="base" inkscape:current-layer="svg2477" inkscape:cx="61.828934" inkscape:cy="49.207949" inkscape:pageopacity="0.0" inkscape:pageshadow="2" inkscape:window-height="744" inkscape:window-width="1280" inkscape:window-x="-4" inkscape:window-y="-4" inkscape:zoom="2.0763359" objecttolerance="10.0" pagecolor="#ffffff" showgrid="false">
	</sodipodi:namedview>
<path id="path2496" sodipodi:nodetypes="ccccccssscccccssccccccccccccccccccccccccccccccccccccccccscccsscccccsccsssssssccccccssssssssccssscccssccsssssccssccccssc" class="st0" d="
	M20.5,92.1c-5.6-3.9-6.5-7.2-6.6-25l-0.1-15.1h5.6h5.6v14.4c0,13.9,0.1,14.4,2.5,16.9c1.4,1.4,3.5,1.9,4.6,1.9
	c1.2,0,3.3-0.5,4.6-1.9c2.4-2.4,2.5-3,2.5-16.9V52.1H45h5.7l-0.4,16.1C50,86.7,49,89.6,42.4,93c-2.9,1.5-6,2-10.9,2
	C25.6,95,23.9,94.5,20.5,92.1z M53.6,73.1v-21h12.2H78v4.6v4.6h-6.6h-6.6v3.6v3.6h5.6H76v4.6v4.6h-5.6h-5.6v8.2V94h-5.6h-5.6V73.1z
	 M89.2,77.7V61.3h-4.6h-4.6v-4.6v-4.6h14.8h14.8v4.6v4.6H105h-4.6v16.4V94h-5.6h-5.6V77.7z M52.5,44.4c-5.1-2.7-21.4-4.8-37.8-4.8
	C-3,39.5-2.2,40,4,32.7l2.9-3.4l7.8,0.7c12.2,1,28.3,5.9,36.5,10.9c4.9,3,11.2,2.6,19.9-1.6c8.9-4.2,24.2-8.5,33.5-9.4l6.7-0.6
	l4.4,5l4.4,5l-19.2,0.6c-18.4,0.6-34.1,2.8-36.5,5.1C62.9,46.4,55.6,46,52.5,44.4z M53.2,35c-2.6-8.5-8-18.4-13.4-24.6
	c-4.1-4.7-4.4-5.3-2.5-5.3c4,0,16.1,10.1,20.2,16.9c1.2,1.9,1.3,1.9,2.9-0.6c3.2-4.8,11.3-11.9,17.4-15.1c3.3-1.8,6.5-3.3,7-3.3
	c0.5,0-1.4,2.5-4.2,5.5c-6.5,6.9-12.2,16.5-15,25.5l-2.2,6.9h-4.2H55L53.2,35z M47.5,36.7C38.7,30.9,14.2,25.3,5.1,27
	c-1.9,0.4-3.4,0.4-3.4,0.1s2.9-2.5,6.4-4.7c5.9-3.9,6.7-4.1,11.8-3.6c7.5,0.8,19.4,6.6,26,12.9c3,2.8,5.6,4.9,5.9,4.7
	c0.2-0.3,0.5,0.4,0.5,1.5c0,1.1,0,2,0,1.9C52.1,39.7,50,38.3,47.5,36.7z M66.3,37.8c0-1.1,0.3-1.7,0.6-1.5c0.4,0.2,2-1,3.6-2.8
	c6.8-7.3,22.8-15.2,30.7-15.2c1.4,0,5.6,2,9.3,4.3l6.7,4.3l-11.7,0.6c-6.4,0.3-14.6,1.4-18.3,2.4c-6.1,1.6-17.3,6.6-19.9,8.8
	C66.6,39.4,66.3,39.1,66.3,37.8z M46.9,30.6c-5.8-5.9-11.8-9.5-23.3-13.9c-8.9-3.4-9.8-4-8.2-5.1c3.3-2.4,10.5-4.7,13-4.1
	c4,1,12.5,8.5,16.5,14.5c3.3,5,7.2,12.8,6.4,12.8C51.1,34.7,49.1,32.9,46.9,30.6z M68.2,31.3C72.6,20.9,86,7.1,91.7,7.2
	c3.2,0.1,13.6,5.8,11.8,6.5c-19.2,7-23.6,9.3-31,16.1l-5.8,5.4L68.2,31.3z M55.6,12.2C53,9.6,52.9,4,55.5,1.7
	c6.2-5.6,14,4.2,8.3,10.4C61.2,14.8,58.3,14.9,55.6,12.2z"/>
</svg>
