<?xml version="1.0" encoding="UTF-8" ?>
<!DOCTYPE svg PUBLIC "-//W3C//DTD SVG 1.1//EN" "http://www.w3.org/Graphics/SVG/1.1/DTD/svg11.dtd">
<svg width="210pt" height="210pt" viewBox="0 0 210 210" version="1.1" xmlns="http://www.w3.org/2000/svg">
<g id="#ffffffff">
</g>
<g id="#ee7e1fff">
<path fill="#ee7e1f" opacity="1.00" d=" M 21.36 36.66 C 27.55 34.83 34.27 36.93 39.33 40.65 C 45.12 44.86 48.96 51.33 50.67 58.22 C 60.97 97.24 71.33 136.26 81.61 175.29 C 82.56 177.12 81.13 179.41 79.00 179.00 C 71.69 178.35 64.73 175.34 58.64 171.36 C 48.20 164.42 41.10 153.32 37.54 141.43 C 28.92 113.15 20.18 84.90 11.65 56.58 C 9.18 48.76 13.11 38.98 21.36 36.66 Z" />
<path fill="#ee7e1f" opacity="1.00" d=" M 178.47 36.78 C 184.88 34.69 192.76 36.61 196.45 42.53 C 199.47 47.04 199.58 52.89 197.99 57.94 C 189.40 86.00 180.84 114.07 172.23 142.13 C 168.26 155.13 159.78 167.09 147.66 173.61 C 142.49 176.36 136.88 178.54 131.00 179.00 C 128.92 179.38 127.45 177.11 128.39 175.30 C 138.75 136.01 149.14 96.73 159.55 57.45 C 161.96 48.05 168.96 39.53 178.47 36.78 Z" />
<path fill="#ee7e1f" opacity="1.00" d=" M 98.44 66.68 C 111.59 63.58 127.16 69.36 133.11 81.94 C 136.18 88.04 135.63 95.13 134.20 101.59 C 131.73 112.79 127.72 123.77 121.51 133.46 C 118.19 138.37 114.03 143.51 108.01 144.97 C 102.59 146.20 97.55 142.73 94.12 138.88 C 87.36 131.19 83.28 121.57 80.04 111.98 C 77.78 104.40 75.41 96.50 76.34 88.52 C 77.95 77.39 87.75 68.90 98.44 66.68 Z" />
</g>
</svg>
