<svg xmlns="http://www.w3.org/2000/svg" viewBox="0 0 316 128.93"><title>Asset 1</title><g id="Layer_2" data-name="Layer 2"><g id="Layer_1-2" data-name="Layer 1"><path d="M105,1.43c0,.8-.4,1.5-1,1.5s-1,.9-1,2-.4,2-1,2-1,2.2-1,5c0,3.8-.4,5-1.5,5s-1.5,1-1.5,3.4c0,3.2-.3,3.5-3.2,3.8l-3.3.3-.3,27.2L91,78.93H88.5c-2.3,0-2.5.3-2.5,5v5H80.6c-3,0-5.8-.5-6.1-1s-.8-9.5-1-19.8l-.4-18.7-2.6-2.2c-3.2-2.8-5.6-2.9-7.8-.5-1.4,1.6-1.7,4.3-1.7,17v15.2H58.5c-2.2,0-2.5-.4-2.5-3.4,0-1.9-.4-3.6-.9-3.8s-1.1-2.3-1.2-4.8c-.3-6.5-.7-7-5-7-2.1,0-3.9-.5-3.9-1,0-.7-2.5-1-6.7-.8l-6.8.3-.1,7.5c0,4.1-.1,9-.2,10.7l-.2,3.3H14.9l.3,11c.3,9.8.1,11-1.4,11a3.36,3.36,0,0,1-2.6-1.6c-.8-1.4-1.1-1.4-2.3-.1a13.56,13.56,0,0,1-5.2,2.1L0,103v25.9H316v-25.5c0-24.8-.1-25.5-2-25.5s-2-.7-2-8.5-.2-8.5-2-8.5-2-.7-2-9c0-7.2-.3-9.2-1.5-9.6a3.09,3.09,0,0,0-3,.6c-.8.7-1.5.8-1.5.3s-.8-1-1.7-1c-3.6,0-4.3,2.2-4.3,12.6v10.1H284l-.2-20.5L283.5,24l-11.2,5.5L261,35v35.9H251v-29h-3c-2.6,0-3-.4-3-2.8,0-3-.5-3.9-3.7-6.5-2.1-1.8-2.2-1.8-5.2.4-2.4,1.7-3.1,3-3.1,5.6,0,3.1-.2,3.3-3.5,3.3H226v32h-3.5c-3.5,0-3.5,0-3.5,4.5,0,3.3-.4,4.5-1.5,4.5s-1.5-1.4-1.5-6.5v-6.5h-3.5c-3.3,0-3.5-.2-3.5-3.5v-3.5H194v-15h-6c-5.3,0-6,.2-6,2,0,1.1-.4,2-.8,2s-.9.8-.9,1.7c.1,9.3-.3,11.3-2.3,11.3s-2,.7-2,9v9h-2.9c-2.7,0-3-.3-3.3-3.7-.3-3.6-.5-3.8-4-4.1-3.3-.3-3.8-.7-3.8-2.8a3.28,3.28,0,0,0-1.5-3,3,3,0,0,1-1.5-2.5,1.77,1.77,0,0,0-2-1.9c-1.9,0-2-.7-2-8.9,0-6.2-.4-9.1-1.2-9.4q-1.5-.6,0-.6c.6-.1,1.2-.6,1.2-1.1s-4.8-1-12.2-1H130.5l.3,18.5c.2,15.9,0,18.5-1.3,18.5-.8,0-1.5.4-1.5,1s-1.8,1-4,1h-4l-.2-29.3-.3-29.2-2.7-.3c-2.4-.3-2.8-.8-2.8-3.3,0-1.6-.6-3.2-1.4-3.5s-1.2-1.9-1.1-5-.1-4.7-1.2-5.3a1.77,1.77,0,0,1-1.1-2.1,4.11,4.11,0,0,0-1.4-3.2C105.6-.47,105-.57,105,1.43Z"/></g></g></svg>